<?xml version="1.0" encoding="UTF-8"?>
<!DOCTYPE svg PUBLIC "-//W3C//DTD SVG 1.1//EN" "http://www.w3.org/Graphics/SVG/1.1/DTD/svg11.dtd">
<svg xmlns="http://www.w3.org/2000/svg" version="1.1" width="720px" height="892px" style="shape-rendering:geometricPrecision; text-rendering:geometricPrecision; image-rendering:optimizeQuality; fill-rule:evenodd; clip-rule:evenodd" xmlns:xlink="http://www.w3.org/1999/xlink">
<g><path style="opacity:0.997" fill="#30423f" d="M -0.5,-0.5 C 239.5,-0.5 479.5,-0.5 719.5,-0.5C 719.5,296.833 719.5,594.167 719.5,891.5C 479.5,891.5 239.5,891.5 -0.5,891.5C -0.5,594.167 -0.5,296.833 -0.5,-0.5 Z M 439.5,64.5 C 444.397,64.7243 449.064,65.8909 453.5,68C 483.348,85.7602 513.682,102.76 544.5,119C 548.5,122.333 548.5,125.667 544.5,129C 417.985,201.093 290.985,272.427 163.5,343C 135.491,360.529 110.824,382.029 89.5,407.5C 88.5175,405.089 87.8508,402.589 87.5,400C 89.133,374.969 92.2997,350.136 97,325.5C 109.47,278.018 135.636,240.185 175.5,212C 182.833,207.333 190.167,202.667 197.5,198C 277.821,152.677 358.487,108.177 439.5,64.5 Z M 623.5,131.5 C 625.39,131.297 626.89,131.963 628,133.5C 632.493,202.975 608.993,260.808 557.5,307C 543.527,317.989 528.86,327.989 513.5,337C 401.672,398.746 290.006,460.746 178.5,523C 148.113,541.047 120.447,562.713 95.5,588C 89.8372,590.858 87.1705,589.025 87.5,582.5C 87.7746,541.068 97.608,502.068 117,465.5C 137.752,431.08 165.919,404.58 201.5,386C 318.661,320.92 435.661,255.587 552.5,190C 578.976,174.035 602.643,154.535 623.5,131.5 Z M 626.5,318.5 C 627.966,319.347 628.8,320.68 629,322.5C 632.19,371.894 620.19,417.228 593,458.5C 574.928,481.576 553.428,500.742 528.5,516C 511.335,525.748 494.335,535.748 477.5,546C 376.167,602 274.833,658 173.5,714C 157.5,724 141.5,734 125.5,744C 116.848,750.653 108.848,757.986 101.5,766C 98.4603,768.155 95.627,767.988 93,765.5C 91.3031,712.258 106.97,664.925 140,623.5C 155.844,605.639 174.011,590.806 194.5,579C 314.823,512.173 434.823,444.84 554.5,377C 566.441,369.391 578.108,361.391 589.5,353C 602.408,341.919 614.741,330.419 626.5,318.5 Z M 626.5,504.5 C 627.5,504.5 628.5,504.5 629.5,504.5C 634.007,601.364 593.674,672.197 508.5,717C 436.167,756.667 363.833,796.333 291.5,836C 284.872,838.244 278.538,837.577 272.5,834C 244.5,817 216.5,800 188.5,783C 184.301,779.888 183.634,776.221 186.5,772C 299.511,708.493 412.844,645.493 526.5,583C 552.206,568.287 576.539,551.62 599.5,533C 609.07,523.933 618.07,514.433 626.5,504.5 Z"/></g>
</svg>
