<svg xmlns="http://www.w3.org/2000/svg" xmlns:xlink="http://www.w3.org/1999/xlink" version="1.1" width="250" height="55" viewBox="0 0 250 55" xml:space="preserve">
<desc>Created with Fabric.js 3.5.0</desc>
<defs>
</defs>
<rect x="0" y="0" width="100%" height="100%" fill="rgba(255,255,255,0)"/>
<g transform="matrix(0.0432 0 0 0.0432 25.6806 27.5172)" id="895099">
<path style="stroke: none; stroke-width: 1; stroke-dasharray: none; stroke-linecap: butt; stroke-dashoffset: 0; stroke-linejoin: miter; stroke-miterlimit: 4; is-custom-font: none; font-file-url: none; fill: rgb(48,66,63); fill-rule: evenodd; opacity: 0.997;" vector-effect="non-scaling-stroke" transform=" translate(-359.5, -445.5)" d="M -0.5 -0.5 C 239.5 -0.5 479.5 -0.5 719.5 -0.5 C 719.5 296.833 719.5 594.167 719.5 891.5 C 479.5 891.5 239.5 891.5 -0.5 891.5 C -0.5 594.167 -0.5 296.833 -0.5 -0.5 Z M 439.5 64.5 C 444.397 64.7243 449.064 65.8909 453.5 68 C 483.348 85.7602 513.682 102.76 544.5 119 C 548.5 122.333 548.5 125.667 544.5 129 C 417.985 201.093 290.985 272.427 163.5 343 C 135.491 360.529 110.824 382.029 89.5 407.5 C 88.5175 405.089 87.8508 402.589 87.5 400 C 89.133 374.969 92.2997 350.136 97 325.5 C 109.47 278.018 135.636 240.185 175.5 212 C 182.833 207.333 190.167 202.667 197.5 198 C 277.821 152.677 358.487 108.177 439.5 64.5 Z M 623.5 131.5 C 625.39 131.297 626.89 131.963 628 133.5 C 632.493 202.975 608.993 260.808 557.5 307 C 543.527 317.989 528.86 327.989 513.5 337 C 401.672 398.746 290.006 460.746 178.5 523 C 148.113 541.047 120.447 562.713 95.5 588 C 89.8372 590.858 87.1705 589.025 87.5 582.5 C 87.7746 541.068 97.608 502.068 117 465.5 C 137.752 431.08 165.919 404.58 201.5 386 C 318.661 320.92 435.661 255.587 552.5 190 C 578.976 174.035 602.643 154.535 623.5 131.5 Z M 626.5 318.5 C 627.966 319.347 628.8 320.68 629 322.5 C 632.19 371.894 620.19 417.228 593 458.5 C 574.928 481.576 553.428 500.742 528.5 516 C 511.335 525.748 494.335 535.748 477.5 546 C 376.167 602 274.833 658 173.5 714 C 157.5 724 141.5 734 125.5 744 C 116.848 750.653 108.848 757.986 101.5 766 C 98.4603 768.155 95.627 767.988 93 765.5 C 91.3031 712.258 106.97 664.925 140 623.5 C 155.844 605.639 174.011 590.806 194.5 579 C 314.823 512.173 434.823 444.84 554.5 377 C 566.441 369.391 578.108 361.391 589.5 353 C 602.408 341.919 614.741 330.419 626.5 318.5 Z M 626.5 504.5 C 627.5 504.5 628.5 504.5 629.5 504.5 C 634.007 601.364 593.674 672.197 508.5 717 C 436.167 756.667 363.833 796.333 291.5 836 C 284.872 838.244 278.538 837.577 272.5 834 C 244.5 817 216.5 800 188.5 783 C 184.301 779.888 183.634 776.221 186.5 772 C 299.511 708.493 412.844 645.493 526.5 583 C 552.206 568.287 576.539 551.62 599.5 533 C 609.07 523.933 618.07 514.433 626.5 504.5 Z" stroke-linecap="round"/>
</g>
<g transform="matrix(0.903 0 0 0.903 222.9044 26.9511)" style="" id="351051">
		
<path xml:space="preserve" font-family="Average Sans" font-size="49" font-style="normal" font-weight="normal" style="stroke: none; stroke-width: 1; stroke-dasharray: none; stroke-linecap: butt; stroke-dashoffset: 0; stroke-linejoin: miter; stroke-miterlimit: 4; is-custom-font: none; font-file-url: none; fill: rgb(49,66,63); fill-rule: nonzero; opacity: 1; white-space: pre;" d="M-175.96-14.74L-185.66-14.74L-185.66-18.47L-162.04-18.47L-162.04-14.74L-171.74-14.74L-171.74 15.39L-175.96 15.39L-175.96-14.74Z"/><path xml:space="preserve" font-family="Average Sans" font-size="49" font-style="normal" font-weight="normal" style="stroke: none; stroke-width: 1; stroke-dasharray: none; stroke-linecap: butt; stroke-dashoffset: 0; stroke-linejoin: miter; stroke-miterlimit: 4; is-custom-font: none; font-file-url: none; fill: rgb(49,66,63); fill-rule: nonzero; opacity: 1; white-space: pre;" d="M-156.50-19.79L-152.34-19.79L-152.34-4.65Q-148.66-7.54-144.45-7.54L-144.45-7.54Q-141.17-7.54-139.23-5.90Q-137.29-4.26-137.29-1.61L-137.29-1.61L-137.29 15.39L-141.46 15.39L-141.46-1.32Q-141.46-2.59-142.46-3.28Q-143.47-3.96-145.13-3.96L-145.13-3.96Q-148.61-3.96-152.34-1.46L-152.34-1.46L-152.34 15.39L-156.50 15.39L-156.50-19.79Z"/><path xml:space="preserve" font-family="Average Sans" font-size="49" font-style="normal" font-weight="normal" style="stroke: none; stroke-width: 1; stroke-dasharray: none; stroke-linecap: butt; stroke-dashoffset: 0; stroke-linejoin: miter; stroke-miterlimit: 4; is-custom-font: none; font-file-url: none; fill: rgb(49,66,63); fill-rule: nonzero; opacity: 1; white-space: pre;" d="M-119.51 12.55L-119.51 12.55Q-115.98 12.55-112.45 10.44L-112.45 10.44L-111.03 13.38Q-115.15 15.98-119.83 15.98Q-124.51 15.98-127.25 13.02Q-129.99 10.05-129.99 4.47Q-129.99-1.12-127.15-4.33Q-124.31-7.54-119.61-7.54L-119.61-7.54Q-115.34-7.54-112.89-4.89L-112.89-4.89Q-111.86-3.82-111.15-1.76Q-110.44 0.30-110.44 3.09L-110.44 3.09L-111.96 4.81L-125.83 4.81Q-125.68 12.55-119.51 12.55ZM-114.56 1.72Q-114.56-1.02-115.98-2.69Q-117.40-4.35-119.73-4.35Q-122.06-4.35-123.67-2.71Q-125.29-1.07-125.63 1.72L-125.63 1.72L-114.56 1.72Z"/><path xml:space="preserve" font-family="Average Sans" font-size="49" font-style="normal" font-weight="normal" style="stroke: none; stroke-width: 1; stroke-dasharray: none; stroke-linecap: butt; stroke-dashoffset: 0; stroke-linejoin: miter; stroke-miterlimit: 4; is-custom-font: none; font-file-url: none; fill: rgb(49,66,63); fill-rule: nonzero; opacity: 1; white-space: pre;" d="M-103.34 15.39L-103.34-6.95L-100.69-6.95L-99.47-3.03L-99.27-3.03Q-96.58-6.51-91.87-7.25L-91.87-7.25L-91.43-3.37Q-93.73-3.23-95.89-2.20Q-98.05-1.17-99.17 0.55L-99.17 0.55L-99.17 15.39L-103.34 15.39Z"/><path xml:space="preserve" font-family="Average Sans" font-size="49" font-style="normal" font-weight="normal" style="stroke: none; stroke-width: 1; stroke-dasharray: none; stroke-linecap: butt; stroke-dashoffset: 0; stroke-linejoin: miter; stroke-miterlimit: 4; is-custom-font: none; font-file-url: none; fill: rgb(49,66,63); fill-rule: nonzero; opacity: 1; white-space: pre;" d="M-73.69 2.02L-73.69 2.02L-73.69-0.14Q-73.69-4.11-77.81-4.11L-77.81-4.11Q-81.04-4.11-84.57-2.00L-84.57-2.00L-85.99-4.94Q-81.88-7.54-77.12-7.54L-77.12-7.54Q-73.79-7.54-71.66-5.85Q-69.53-4.16-69.53-0.63L-69.53-0.63L-69.53 15.39L-72.17 15.39L-73.40 12.45Q-74.97 14.07-77.12 15.03Q-79.28 15.98-81.04 15.98L-81.04 15.98Q-84.08 15.98-85.89 14.31Q-87.71 12.65-87.71 9.95L-87.71 9.95Q-87.71 2.02-73.69 2.02ZM-81.83 6.77Q-82.76 7.60-83.08 8.26Q-83.39 8.92-83.39 9.98Q-83.39 11.03-82.49 11.79Q-81.58 12.55-80.11 12.55L-80.11 12.55Q-77.02 12.55-73.69 9.81L-73.69 9.81L-73.69 4.91Q-79.87 5.00-81.83 6.77L-81.83 6.77Z"/><path xml:space="preserve" font-family="Average Sans" font-size="49" font-style="normal" font-weight="normal" style="stroke: none; stroke-width: 1; stroke-dasharray: none; stroke-linecap: butt; stroke-dashoffset: 0; stroke-linejoin: miter; stroke-miterlimit: 4; is-custom-font: none; font-file-url: none; fill: rgb(49,66,63); fill-rule: nonzero; opacity: 1; white-space: pre;" d="M-42.77-17.63L-44.05-14.25Q-47.48-15.43-50.42-15.43Q-53.36-15.43-55.22-13.91Q-57.08-12.39-57.08-10.23L-57.08-10.23Q-57.08-7.15-53.80-5.38L-53.80-5.38L-46.89-1.56Q-41.11 1.67-41.11 6.77L-41.11 6.77Q-41.11 10.98-44.10 13.48Q-47.09 15.98-52.52 15.98Q-57.96 15.98-62.28 14.02L-62.28 14.02L-61.05 10.59Q-57.03 12.35-53.14 12.35Q-49.24 12.35-47.38 10.84Q-45.52 9.32-45.52 7.16L-45.52 7.16Q-45.52 4.07-48.80 2.31L-48.80 2.31L-55.71-1.51Q-61.49-4.75-61.49-9.84L-61.49-9.84Q-61.49-14.06-58.50-16.56Q-55.51-19.05-50.47-19.05L-50.47-19.05Q-47.04-19.05-42.77-17.63L-42.77-17.63Z"/><path xml:space="preserve" font-family="Average Sans" font-size="49" font-style="normal" font-weight="normal" style="stroke: none; stroke-width: 1; stroke-dasharray: none; stroke-linecap: butt; stroke-dashoffset: 0; stroke-linejoin: miter; stroke-miterlimit: 4; is-custom-font: none; font-file-url: none; fill: rgb(49,66,63); fill-rule: nonzero; opacity: 1; white-space: pre;" d="M-24.69 12.55L-24.69 12.55Q-21.16 12.55-17.64 10.44L-17.64 10.44L-16.22 13.38Q-20.33 15.98-25.01 15.98Q-29.69 15.98-32.43 13.02Q-35.18 10.05-35.18 4.47Q-35.18-1.12-32.34-4.33Q-29.49-7.54-24.79-7.54L-24.79-7.54Q-20.53-7.54-18.08-4.89L-18.08-4.89Q-17.05-3.82-16.34-1.76Q-15.63 0.30-15.63 3.09L-15.63 3.09L-17.15 4.81L-31.01 4.81Q-30.87 12.55-24.69 12.55ZM-19.74 1.72Q-19.74-1.02-21.16-2.69Q-22.59-4.35-24.91-4.35Q-27.24-4.35-28.86-2.71Q-30.47-1.07-30.82 1.72L-30.82 1.72L-19.74 1.72Z"/><path xml:space="preserve" font-family="Average Sans" font-size="49" font-style="normal" font-weight="normal" style="stroke: none; stroke-width: 1; stroke-dasharray: none; stroke-linecap: butt; stroke-dashoffset: 0; stroke-linejoin: miter; stroke-miterlimit: 4; is-custom-font: none; font-file-url: none; fill: rgb(49,66,63); fill-rule: nonzero; opacity: 1; white-space: pre;" d="M-8.72 15.39L-8.72-19.79L-4.70-19.79L-4.70 15.39L-8.72 15.39Z"/><path xml:space="preserve" font-family="Average Sans" font-size="49" font-style="normal" font-weight="normal" style="stroke: none; stroke-width: 1; stroke-dasharray: none; stroke-linecap: butt; stroke-dashoffset: 0; stroke-linejoin: miter; stroke-miterlimit: 4; is-custom-font: none; font-file-url: none; fill: rgb(49,66,63); fill-rule: nonzero; opacity: 1; white-space: pre;" d="M1.91-6.95L5.25-6.95L5.25-12.88Q5.25-16.51 6.96-18.44Q8.68-20.38 11.45-20.38Q14.21-20.38 17.35-18.91L17.35-18.91L15.93-15.97Q13.77-16.85 12.20-16.85L12.20-16.85Q9.26-16.85 9.26-12.93L9.26-12.93L9.26-6.95L15.34-6.95L15.34-3.86L9.26-3.86L9.26 15.39L5.25 15.39L5.25-3.86L1.91-3.86L1.91-6.95Z"/></g>
</svg>