<svg version="1.1" id="Layer_1" xmlns="http://www.w3.org/2000/svg" xmlns:xlink="http://www.w3.org/1999/xlink" x="0px" y="0px"
	 width="100%" viewBox="0 0 336 416" enable-background="new 0 0 336 416" xml:space="preserve">
<path fill="#000000" opacity="1.000000" stroke="none" 
	d="
M187.000000,417.000000 
	C124.666679,417.000000 62.833355,417.000000 1.000025,417.000000 
	C1.000017,278.333374 1.000017,139.666733 1.000008,1.000081 
	C112.999947,1.000054 224.999893,1.000054 336.999878,1.000027 
	C336.999939,139.666580 336.999939,278.333160 336.999969,416.999878 
	C287.166656,417.000000 237.333328,417.000000 187.000000,417.000000 
M46.215549,276.498138 
	C60.378601,261.893036 77.150711,250.901764 94.840195,241.116791 
	C141.609879,215.246017 188.318497,189.264877 235.063293,163.349075 
	C251.165100,154.422058 265.451111,143.500519 274.917816,127.269707 
	C280.563019,117.590904 285.556335,107.539726 287.267029,96.388382 
	C288.523315,88.199089 288.653259,79.835640 289.242706,71.546776 
	C289.340393,70.173309 289.053040,68.876381 287.224701,68.212105 
	C286.700439,68.622070 285.978424,69.028725 285.459961,69.615288 
	C273.706421,82.912865 259.047699,92.429581 243.835648,101.087563 
	C222.284927,113.353195 200.501099,125.208771 178.840164,137.281342 
	C150.199234,153.244186 121.683998,169.435791 92.926506,185.185379 
	C57.289742,204.702545 41.901428,235.606522 41.368542,275.123657 
	C41.314888,279.102753 42.896667,279.617310 46.215549,276.498138 
M43.844093,343.228790 
	C43.672813,347.380371 43.466293,351.530914 43.349121,355.684021 
	C43.307335,357.164978 43.134674,358.958282 44.707947,359.707214 
	C46.662220,360.637512 47.735275,358.795685 48.840851,357.688477 
	C53.450783,353.071686 58.459484,348.965759 63.986332,345.502533 
	C94.906319,326.127686 127.387825,309.512360 159.223312,291.760376 
	C187.132172,276.197937 215.493378,261.424591 242.784256,244.788757 
	C256.373230,236.505249 268.356384,226.248947 276.598419,212.159286 
	C284.962067,197.861771 288.731995,182.349319 289.490570,166.010696 
	C289.674194,162.055222 290.315094,157.879471 288.749298,154.099182 
	C286.101776,154.017883 285.367981,155.785614 284.317078,156.946869 
	C278.372559,163.515747 271.893707,169.406693 264.513458,174.390961 
	C252.903656,182.231628 240.742493,189.128601 228.543930,195.957169 
	C182.789932,221.569565 136.952087,247.032166 91.195297,272.639587 
	C63.826553,287.956299 48.865215,311.756470 43.844093,343.228790 
M196.500427,97.912987 
	C213.752853,88.164261 231.010071,78.423943 248.249481,68.652252 
	C249.776230,67.786858 252.019562,67.372269 252.003952,65.114967 
	C251.988678,62.909103 249.851807,62.364609 248.287125,61.494797 
	C235.334686,54.294468 222.243942,47.329121 209.490494,39.792732 
	C205.514664,37.443302 202.441422,37.093761 198.481964,39.328869 
	C186.159302,46.284996 173.673630,52.951508 161.308014,59.832474 
	C138.759689,72.379707 116.208603,84.923164 93.745201,97.621277 
	C81.642128,104.462906 70.546829,112.570511 61.766399,123.618423 
	C48.327900,140.527344 43.180134,160.189499 42.314972,181.241959 
	C42.127464,185.804657 40.664341,190.364258 41.598320,194.952606 
	C42.914246,195.090668 43.348644,194.284866 43.829185,193.671127 
	C53.527557,181.284775 65.757393,171.627457 79.097954,163.803833 
	C117.597557,141.225571 157.441391,121.015923 196.500427,97.912987 
M250.867554,269.422791 
	C238.446625,277.537292 225.224792,284.259155 212.286560,291.463196 
	C171.585434,314.125702 130.778854,336.598724 90.031235,359.177826 
	C84.026665,362.505066 83.879036,364.616425 89.657471,368.162811 
	C101.568924,375.473236 113.699791,382.428406 125.555504,389.826050 
	C129.425598,392.240845 132.564117,392.365417 136.572815,390.145752 
	C167.431030,373.059387 198.422379,356.213593 229.301254,339.164276 
	C240.233597,333.128113 251.261414,326.994751 260.287170,318.293823 
	C278.569977,300.668915 288.012848,278.768036 289.583466,253.482452 
	C289.874084,248.803253 289.624939,244.090530 289.624939,239.393280 
	C289.158478,239.252289 288.692017,239.111282 288.225555,238.970291 
	C277.752991,251.219635 265.433533,261.157074 250.867554,269.422791 
z"/>
</svg>