<?xml version="1.0" standalone="no"?>
<!DOCTYPE svg PUBLIC "-//W3C//DTD SVG 20010904//EN"
 "http://www.w3.org/TR/2001/REC-SVG-20010904/DTD/svg10.dtd">
<svg version="1.0" xmlns="http://www.w3.org/2000/svg"
 width="388.000000pt" height="451.000000pt" viewBox="0 0 388.000000 451.000000"
 preserveAspectRatio="xMidYMid meet">
<metadata>
Created by potrace 1.16, written by Peter Selinger 2001-2019
</metadata>
<g transform="translate(0.000000,451.000000) scale(0.100000,-0.100000)"
fill="#000000" stroke="none">
<path d="M0 2255 l0 -2255 803 0 c696 0 806 2 831 15 26 14 31 14 53 0 20 -13
52 -15 206 -11 100 3 200 5 222 5 22 0 428 -2 903 -5 l862 -4 0 2255 0 2255
-1940 0 -1940 0 0 -2255z m2272 1746 c42 -27 149 -87 253 -140 28 -14 52 -29
55 -32 3 -3 40 -23 82 -45 43 -21 78 -42 78 -45 0 -4 -8 -10 -17 -13 -29 -11
-267 -145 -430 -243 -40 -24 -75 -43 -77 -43 -3 0 -101 -55 -218 -122 -117
-66 -233 -132 -258 -146 -25 -14 -71 -40 -103 -58 -32 -19 -60 -34 -62 -34 -2
0 -50 -26 -107 -58 -57 -33 -157 -87 -223 -122 -305 -160 -564 -351 -627 -462
-12 -21 -25 -38 -30 -38 -14 0 14 302 39 410 48 214 190 417 378 541 77 51
227 139 320 189 33 17 67 36 75 40 8 5 56 32 105 60 50 28 97 55 105 60 46 27
189 105 280 153 58 30 155 83 215 116 61 34 113 61 117 61 4 0 26 -13 50 -29z
m807 -336 c-4 -38 -11 -115 -15 -170 -17 -250 -187 -528 -409 -670 -52 -34
-322 -186 -655 -370 -52 -29 -113 -63 -135 -75 -22 -13 -85 -48 -140 -78 -713
-388 -845 -469 -1010 -619 -58 -51 -105 -98 -105 -102 0 -5 -6 -11 -13 -14
-16 -6 -13 78 9 238 34 248 91 379 229 524 98 102 157 150 250 201 33 18 80
45 105 60 25 15 101 57 170 95 69 37 251 139 405 225 244 137 367 205 555 308
25 13 70 40 101 58 31 19 59 34 62 34 3 0 35 18 71 40 36 22 68 40 71 40 12 0
205 131 275 186 41 33 98 86 125 117 28 30 53 53 56 49 4 -4 3 -38 -2 -77z
m-9 -1055 c-32 -246 -161 -460 -369 -612 -105 -76 -398 -245 -861 -495 -36
-20 -94 -52 -130 -73 -36 -21 -114 -63 -175 -95 -60 -32 -121 -66 -135 -75
-14 -10 -50 -30 -80 -45 -75 -38 -258 -141 -420 -239 -94 -56 -157 -103 -209
-153 -41 -40 -76 -73 -79 -73 -2 0 -2 60 0 132 5 116 10 147 40 243 39 123 62
171 120 256 86 127 196 222 363 314 39 21 81 46 95 55 14 9 59 35 100 57 73
38 417 231 570 318 41 24 145 81 230 128 160 87 201 110 333 184 42 24 99 55
125 70 209 116 389 255 458 355 l29 41 3 -99 c2 -54 -2 -142 -8 -194z m13
-692 c-9 -233 -54 -382 -168 -558 -83 -130 -185 -220 -365 -325 -92 -53 -320
-180 -420 -233 -47 -25 -143 -77 -215 -117 -260 -145 -412 -225 -425 -225 -12
0 -500 288 -500 296 0 2 17 12 38 22 20 10 73 39 117 64 44 24 105 58 135 75
30 17 120 66 200 110 80 44 277 153 439 242 694 384 804 447 926 537 71 52
225 205 225 224 0 5 4 10 9 10 5 0 7 -52 4 -122z"/>
</g>
</svg>
