<?xml version="1.0" standalone="no"?>
<!DOCTYPE svg PUBLIC "-//W3C//DTD SVG 20010904//EN"
 "http://www.w3.org/TR/2001/REC-SVG-20010904/DTD/svg10.dtd">
<svg version="1.0" xmlns="http://www.w3.org/2000/svg"
 width="340.000000pt" height="423.000000pt" viewBox="0 0 340.000000 423.000000"
 preserveAspectRatio="xMidYMid meet">

<g transform="translate(0.000000,423.000000) scale(0.100000,-0.100000)"
fill="#000000" stroke="none">
<path d="M0 2115 l0 -2115 1700 0 1700 0 0 2115 0 2115 -1700 0 -1700 0 0
-2115z m2082 1736 c42 -27 149 -87 253 -140 28 -14 52 -29 55 -32 3 -3 40 -23
82 -45 43 -21 78 -42 78 -45 0 -4 -8 -10 -17 -13 -29 -11 -267 -145 -430 -243
-40 -24 -75 -43 -77 -43 -3 0 -101 -55 -218 -122 -117 -66 -233 -132 -258
-146 -25 -14 -71 -40 -103 -58 -32 -19 -60 -34 -62 -34 -2 0 -50 -26 -107 -58
-57 -33 -157 -87 -223 -122 -171 -89 -273 -152 -384 -234 -124 -93 -215 -178
-243 -227 -12 -21 -25 -39 -30 -39 -17 0 19 336 48 446 36 140 114 274 225
385 91 91 238 190 457 305 40 22 81 44 90 49 9 6 55 31 102 58 47 26 92 52
100 56 34 21 182 102 280 154 58 30 155 83 215 116 61 34 113 61 117 61 4 0
26 -13 50 -29z m798 -446 c-18 -189 -29 -231 -101 -377 -59 -121 -171 -253
-284 -333 -50 -36 -305 -181 -695 -395 -47 -26 -103 -58 -125 -70 -22 -13 -85
-48 -140 -78 -55 -30 -122 -67 -150 -82 -145 -78 -328 -182 -364 -204 -22 -14
-43 -26 -46 -26 -3 0 -38 -20 -78 -44 -39 -24 -77 -45 -82 -47 -65 -25 -395
-292 -395 -318 0 -5 -6 -11 -13 -14 -11 -4 -13 6 -10 46 17 252 51 407 115
536 69 138 261 322 418 401 24 13 60 33 80 45 19 12 91 53 160 90 69 38 251
139 405 225 286 160 432 241 565 313 41 22 92 51 112 64 21 13 39 23 42 23 2
0 34 18 70 40 36 22 68 40 71 40 12 0 205 131 275 186 41 33 98 86 125 117 28
30 53 53 56 49 3 -4 -2 -88 -11 -187z m8 -802 c-7 -168 -17 -231 -51 -323 -68
-185 -164 -312 -326 -432 -90 -67 -441 -269 -856 -493 -38 -21 -99 -54 -135
-75 -36 -21 -114 -63 -175 -95 -60 -32 -121 -66 -135 -75 -14 -10 -50 -30 -80
-45 -76 -38 -259 -142 -420 -239 -91 -55 -159 -105 -210 -153 -41 -40 -77 -73
-79 -73 -2 0 -1 60 1 132 5 116 10 147 40 243 39 123 62 171 120 256 86 127
196 222 363 314 39 21 81 46 95 55 14 9 59 35 100 57 73 38 417 231 570 318
41 24 145 81 230 128 206 112 259 142 359 199 46 26 85 48 87 48 8 0 192 115
262 164 76 54 182 155 216 209 10 15 21 27 25 27 3 0 3 -66 -1 -147z m5 -840
c-7 -170 -32 -291 -81 -396 -84 -179 -179 -299 -312 -391 -97 -68 -309 -191
-560 -324 -47 -25 -143 -77 -215 -117 -260 -145 -412 -225 -425 -225 -7 0
-123 66 -257 147 -220 131 -243 148 -227 160 10 7 22 13 26 13 5 0 25 11 46
23 36 23 68 41 217 122 39 21 147 81 240 133 94 52 220 122 280 155 600 327
911 506 1019 584 71 51 200 175 223 214 10 16 20 29 24 29 4 0 5 -57 2 -127z"/>
</g>
</svg>
