<?xml version="1.0" encoding="UTF-8"?>
<svg version="1.1" xmlns="http://www.w3.org/2000/svg" width="388" height="451">
<path d="M0 0 C128.04 0 256.08 0 388 0 C388 148.83 388 297.66 388 451 C259.96 451 131.92 451 0 451 C0 302.17 0 153.34 0 0 Z " fill="#314440" transform="translate(0,0)"/>
<path d="M0 0 C0.66 0 1.32 0 2 0 C1.85879984 2.58366245 1.71221667 5.16682885 1.5625 7.75 C1.52318359 8.47960937 1.48386719 9.20921875 1.44335938 9.9609375 C1.11301801 15.55132984 1.11301801 15.55132984 0.48901367 18.02856445 C-0.1184841 20.47766308 -0.12669929 22.86711571 -0.18847656 25.38012695 C-0.44917415 34.09797837 -2.3511373 41.01811285 -6 49 C-6.556875 50.36511719 -6.556875 50.36511719 -7.125 51.7578125 C-19.56681949 81.39353531 -43.64477356 95.3555463 -70.93359375 109.73828125 C-75.66606351 112.24570048 -80.25934833 114.92017319 -84.83129883 117.70727539 C-87.52702529 119.31415051 -90.29402424 120.71009793 -93.125 122.0625 C-97.24264493 124.03007272 -101.05228194 126.25498655 -104.89794922 128.69506836 C-108.35954149 130.84398946 -111.92856028 132.79103572 -115.5 134.75 C-117.08619657 135.62453028 -118.67212875 136.49954023 -120.2578125 137.375 C-121.04961914 137.81199219 -121.84142578 138.24898437 -122.65722656 138.69921875 C-125.56956758 140.31624177 -128.46578358 141.9607007 -131.36181641 143.60668945 C-136.55867042 146.55804373 -141.75743091 149.42841517 -147.125 152.0625 C-157.69966229 157.25732064 -167.75686027 163.43771542 -177.89331055 169.42871094 C-181.72788756 171.68808465 -185.57851515 173.89346641 -189.5 176 C-205.89342612 184.83298759 -221.40178998 194.17584193 -235 207 C-236.4509711 208.29993144 -237.90855642 209.5925484 -239.375 210.875 C-239.96023437 211.38804687 -240.54546875 211.90109375 -241.1484375 212.4296875 C-243.39471002 214.33475407 -245.69325176 216.16886995 -248 218 C-248.57477289 192.19908344 -245.58560714 165.11686753 -227.3125 145.375 C-225.56061401 143.56480232 -223.79062381 141.77188784 -222 140 C-221.15050781 139.1440625 -220.30101562 138.288125 -219.42578125 137.40625 C-210.35503687 128.40853899 -200.5895938 121.80758462 -189.34375 115.796875 C-186.64494144 114.34658068 -183.96067393 112.87614158 -181.28125 111.390625 C-173.05455927 106.83158281 -164.83216728 102.33753196 -156.390625 98.1875 C-152.31375645 96.16238882 -148.4336861 93.93849847 -144.625 91.4453125 C-138.49626814 87.43669428 -132.25413809 84.01891721 -125.65234375 80.87109375 C-121.90185826 79.01817845 -118.36888171 76.8411615 -114.7956543 74.6706543 C-109.57927564 71.55339998 -104.25300652 68.63139754 -98.9375 65.6875 C-98.34495422 65.35851715 -97.75240845 65.0295343 -97.14190674 64.69058228 C-90.09348691 60.77770323 -83.022358 56.91704173 -75.875 53.1875 C-68.91138282 49.54883033 -62.14298329 45.62983514 -55.3984375 41.6015625 C-52.34397504 39.7810311 -49.26551948 38.01267623 -46.1640625 36.2734375 C-36.45199669 30.80823175 -27.65264168 25.02647901 -19 18 C-17.43829477 16.85308368 -15.87586394 15.7071543 -14.3125 14.5625 C-9.64261072 10.96495567 -5.89330627 6.60990072 -2.06640625 2.16015625 C-1.38449219 1.44730469 -0.70257813 0.73445313 0 0 Z " fill="#AEBAB2" transform="translate(307,76)"/>
<path d="M0 0 C0.33 0 0.66 0 1 0 C1.63475914 28.43720964 -1.37051768 52.47599228 -20 75 C-20.556875 75.69222656 -21.11375 76.38445312 -21.6875 77.09765625 C-25.92917841 82.19356156 -30.63493577 86.12866865 -36 90 C-36.77214844 90.56460938 -37.54429687 91.12921875 -38.33984375 91.7109375 C-48.82316134 99.22086679 -59.80258545 105.5875188 -71.28881836 111.41137695 C-75.57049988 113.60721467 -79.4431698 115.96482718 -83.30615234 118.82788086 C-86.1556758 120.79971166 -89.24760762 122.21374395 -92.375 123.6875 C-98.25443579 126.53629878 -103.90387708 129.62982743 -109.5 133 C-115.70472319 136.73552572 -122.00771433 140.06897848 -128.52099609 143.23120117 C-132.99590944 145.42810993 -137.09441974 147.89031879 -141.171875 150.74609375 C-144.71220759 153.1743988 -147.67914273 155 -152 155 C-152 155.66 -152 156.32 -152 157 C-152.95777344 157.47308594 -153.91554688 157.94617188 -154.90234375 158.43359375 C-175.53969845 168.65828739 -175.53969845 168.65828739 -195.296875 180.46240234 C-198.73858255 182.68532534 -202.20546811 184.64177068 -205.88671875 186.4453125 C-219.54822551 193.14811509 -235.37402319 202.06103478 -244 215 C-244.66 215 -245.32 215 -246 215 C-246.46890277 200.71830363 -246.17822307 187.72844723 -242 174 C-241.34 174 -240.68 174 -240 174 C-239.90074219 172.97777344 -239.80148438 171.95554687 -239.69921875 170.90234375 C-238.04384248 161.66367951 -231.97497972 153.11578731 -226 146 C-225.36707031 145.22269531 -224.73414063 144.44539062 -224.08203125 143.64453125 C-208.83807797 125.73496865 -186.53463615 115.22105062 -165.953125 104.61328125 C-162.83516675 102.90995221 -159.94513644 100.98459329 -157 99 C-155.47215106 98.12135649 -153.93005769 97.26703746 -152.375 96.4375 C-147.00706592 93.54538858 -141.65550604 90.62534622 -136.3125 87.6875 C-135.44496094 87.21054688 -134.57742187 86.73359375 -133.68359375 86.2421875 C-127.75390099 82.97732691 -121.84492503 79.67769356 -115.94970703 76.35107422 C-105.22914911 70.30337223 -94.47443722 64.31349846 -83.65234375 58.44921875 C-76.25841033 54.40923451 -68.93178129 50.25771412 -61.625 46.0625 C-56.05618457 42.86638715 -50.4879939 39.69169563 -44.8125 36.6875 C-40.39449071 34.31343459 -36.34286578 31.56211808 -32.2890625 28.61328125 C-29.92223101 26.94519012 -27.49655045 25.46553832 -25 24 C-14.80701893 17.9996036 -6.5523205 9.82848076 0 0 Z " fill="#ADB9B1" transform="translate(307,161)"/>
<path d="M0 0 C2.37500671 0.94756261 4.16548278 2.01451875 6.21875 3.53515625 C12.21338588 7.70927351 18.7239917 10.73530551 25.28125 13.91015625 C27.28261736 14.90741684 29.28307259 15.90651934 31.28125 16.91015625 C31.28125 17.57015625 31.28125 18.23015625 31.28125 18.91015625 C32.60125 18.91015625 33.92125 18.91015625 35.28125 18.91015625 C35.28125 19.57015625 35.28125 20.23015625 35.28125 20.91015625 C35.81234375 21.01199219 36.3434375 21.11382812 36.890625 21.21875 C39.9834284 22.11323726 42.66576568 23.50876752 45.53125 24.97265625 C46.60890625 25.52050781 47.6865625 26.06835938 48.796875 26.6328125 C49.61671875 27.05433594 50.4365625 27.47585937 51.28125 27.91015625 C51.28125 28.57015625 51.28125 29.23015625 51.28125 29.91015625 C49.68410156 30.74546875 49.68410156 30.74546875 48.0546875 31.59765625 C39.30021155 36.19362925 30.65693112 40.92313286 22.09521484 45.87011719 C18.75549101 47.78495212 15.39110353 49.65594945 12.03125 51.53515625 C6.84309824 54.44103784 1.71814565 57.42591317 -3.36328125 60.515625 C-6.85403312 62.58228904 -10.42998432 64.48475453 -14 66.41015625 C-16.61312876 67.85188246 -19.16839215 69.36057173 -21.71875 70.91015625 C-25.94659869 73.47469769 -30.24800713 75.86027606 -34.59765625 78.2109375 C-38.34155395 80.24922974 -42.06418241 82.32341945 -45.78125 84.41015625 C-46.47412109 84.79905029 -47.16699219 85.18794434 -47.88085938 85.58862305 C-51.57775709 87.67318442 -55.22992239 89.80851453 -58.84375 92.03515625 C-63.86764106 95.10058131 -69.12564004 97.64696073 -74.421875 100.19921875 C-77.70041171 101.90063946 -80.64871234 103.86212852 -83.71875 105.91015625 C-85.90984528 107.04814641 -88.11929539 108.15133845 -90.34375 109.22265625 C-95.99513634 111.98577274 -101.43165511 114.99976155 -106.83984375 118.21875 C-109.68453875 119.89005656 -112.56319625 121.47247191 -115.46875 123.03515625 C-122.89827861 127.06347005 -129.7783763 131.58966823 -136.6171875 136.5546875 C-138.71875 137.91015625 -138.71875 137.91015625 -140.71875 137.91015625 C-141.04875 138.90015625 -141.37875 139.89015625 -141.71875 140.91015625 C-143.35675001 142.3437661 -145.05448655 143.70979998 -146.78125 145.03515625 C-153.06754365 150.05273178 -159.3497655 155.45145923 -162.71875 162.91015625 C-163.37875 162.91015625 -164.03875 162.91015625 -164.71875 162.91015625 C-163.62026196 135.21669455 -162.00057886 107.69452034 -142.71875 85.91015625 C-142.03039062 85.09160156 -141.34203125 84.27304688 -140.6328125 83.4296875 C-134.22799782 76.00234977 -127.20067547 69.85678164 -118.71875 64.91015625 C-117.831875 64.35328125 -116.945 63.79640625 -116.03125 63.22265625 C-113.71875 61.91015625 -113.71875 61.91015625 -111.71875 61.91015625 C-111.71875 61.25015625 -111.71875 60.59015625 -111.71875 59.91015625 C-111.00589844 59.5234375 -110.29304688 59.13671875 -109.55859375 58.73828125 C-103.16367108 55.2659972 -103.16367108 55.2659972 -96.84375 51.66015625 C-93.71875 49.91015625 -93.71875 49.91015625 -91.43359375 49.03125 C-88.16589366 47.68185442 -85.21571343 45.99429093 -82.15625 44.22265625 C-81.23815552 43.69309326 -81.23815552 43.69309326 -80.30151367 43.15283203 C-76.36813568 40.88062066 -72.45013302 38.58225609 -68.53125 36.28515625 C-63.90797126 33.57854804 -59.23110749 30.99485183 -54.515625 28.453125 C-50.50075431 26.23821729 -46.57077835 23.88478654 -42.640625 21.5234375 C-39.71875 19.91015625 -39.71875 19.91015625 -36.26171875 18.4296875 C-32.75901791 16.92742661 -29.57139288 15.20473541 -26.28125 13.28515625 C-25.06511611 12.58591673 -23.84896975 11.8866989 -22.6328125 11.1875 C-19.885376 9.59684204 -17.15566545 7.97867282 -14.4296875 6.3515625 C-13.00533855 5.51670488 -11.58086205 4.68206483 -10.15625 3.84765625 C-9.48988525 3.44144043 -8.82352051 3.03522461 -8.13696289 2.61669922 C-5.31480499 0.97710183 -3.30591905 -0.10924733 0 0 Z " fill="#AFBAB3" transform="translate(222.71875,48.08984375)"/>
<path d="M0 0 C0.66 0 1.32 0 2 0 C1.33923497 33.5018821 -4.54568735 61.79287194 -29.76171875 86.05078125 C-33.27410454 89.1095605 -37.05995567 91.53510827 -41 94 C-42.96000833 95.33086985 -44.91824245 96.66435517 -46.875 98 C-51.41730555 101.02439942 -56.01167732 103.75582334 -60.83203125 106.30859375 C-64.071119 108.03797106 -67.2716796 109.82666868 -70.47290039 111.62475586 C-76.481811 114.99634225 -82.48992736 118.29624794 -88.6875 121.3125 C-95.8482738 124.83122696 -102.74289175 128.77540353 -109.6706543 132.72949219 C-118.47455801 137.73983225 -127.37447925 142.55582774 -136.30761719 147.33032227 C-142.30893025 150.53929271 -148.25889435 153.79934961 -154.125 157.25 C-156.58629677 158.23451871 -158.35760146 158.21135283 -161 158 C-163.09448242 156.89404297 -163.09448242 156.89404297 -165.16796875 155.3671875 C-170.03994891 151.93110636 -175.110481 149.02847465 -180.3125 146.125 C-187.299545 142.18896465 -194.06835597 138.1482132 -200.625 133.5234375 C-203.01532953 131.99016691 -205.33423148 130.96158079 -208 130 C-207 127 -207 127 -205.03125 125.7890625 C-204.1959375 125.40492188 -203.360625 125.02078125 -202.5 124.625 C-198.148794 122.56817992 -193.9741688 120.33322297 -189.8125 117.91796875 C-188 117 -188 117 -186 117 C-186 116.34 -186 115.68 -186 115 C-184.66775391 114.35998047 -184.66775391 114.35998047 -183.30859375 113.70703125 C-169.55532533 107.00851013 -156.32230547 99.39641504 -143.0859375 91.73828125 C-135.91344421 87.59772013 -128.65468296 83.68623065 -121.31420898 79.85302734 C-109.31262692 73.57099608 -97.52839375 66.88893145 -85.73950195 60.21850586 C-82.08712057 58.15601378 -78.41548582 56.13257286 -74.73046875 54.12890625 C-65.08368629 48.87725647 -55.53589875 43.4498174 -46 38 C-45.25041016 37.57251465 -44.50082031 37.1450293 -43.72851562 36.70458984 C-27.49238116 27.3926892 -9.80381587 16.4002105 0 0 Z " fill="#ACB9B0" transform="translate(307,247)"/>
<path d="M0 0 C0.66 0 1.32 0 2 0 C1.86061293 4.37523025 1.71235541 8.75011678 1.5625 13.125 C1.52318359 14.3625 1.48386719 15.6 1.44335938 16.875 C1.40146484 18.07382812 1.35957031 19.27265625 1.31640625 20.5078125 C1.26141968 22.15740967 1.26141968 22.15740967 1.20532227 23.84033203 C1.00316521 26.95129116 0.56710106 29.93644338 0 33 C-0.66 33 -1.32 33 -2 33 C-2 25.41 -2 17.82 -2 10 C-2.99 11.32 -3.98 12.64 -5 14 C-6.32 14 -7.64 14 -9 14 C-9.66 15.32 -10.32 16.64 -11 18 C-11.66 17.67 -12.32 17.34 -13 17 C-10.83351749 12.79447513 -8.00710786 9.9499964 -4.64453125 6.71484375 C-2.6932933 4.68017995 -1.40134437 2.43391391 0 0 Z " fill="#AEBFB7" transform="translate(307,247)"/>
<path d="M0 0 C1.65 0.33 3.3 0.66 5 1 C4.37755401 2.27208622 3.75193233 3.54261882 3.125 4.8125 C2.77695313 5.52019531 2.42890625 6.22789062 2.0703125 6.95703125 C1 9 1 9 -1 12 C-0.01 12 0.98 12 2 12 C2.0825 11.2575 2.165 10.515 2.25 9.75 C3.1396946 6.48778646 4.48503749 5.19045122 7 3 C6.30095 6.52021606 4.86512303 9.36971814 3.25 12.5625 C-1.41756608 22.47123667 -3.98579887 33.25759399 -6 44 C-6.33 44 -6.66 44 -7 44 C-6.23282443 30.57442748 -6.23282443 30.57442748 -4 24 C-3.45347302 22.18895961 -2.91206713 20.37636822 -2.375 18.5625 C-1.91712214 17.04152948 -1.45894807 15.52064794 -1 14 C-1.66 13.67 -2.32 13.34 -3 13 C-2.67 9.7 -2.34 6.4 -2 3 C-1.34 3 -0.68 3 0 3 C0 2.01 0 1.02 0 0 Z " fill="#31423A" transform="translate(66,139)"/>
<path d="M0 0 C0 0.66 0 1.32 0 2 C-1.48886719 2.8353125 -1.48886719 2.8353125 -3.0078125 3.6875 C-3.98379395 4.23579468 -3.98379395 4.23579468 -4.97949219 4.79516602 C-6.41969601 5.60392863 -7.86045938 6.41169558 -9.30175781 7.21850586 C-12.90177636 9.2380767 -16.48714043 11.27572505 -20.0390625 13.37890625 C-20.66538574 13.74693359 -21.29170898 14.11496094 -21.93701172 14.49414062 C-23.66468481 15.51222539 -25.38717341 16.53909298 -27.109375 17.56640625 C-30 19 -30 19 -34 19 C-34.33 18.01 -34.66 17.02 -35 16 C-34.01 15.01 -33.02 14.02 -32 13 C-31.67 13.99 -31.34 14.98 -31 16 C-30.34 16 -29.68 16 -29 16 C-29 15.01 -29 14.02 -29 13 C-28.01 12.67 -27.02 12.34 -26 12 C-25.67 11.34 -25.34 10.68 -25 10 C-22.67038557 9.64159778 -20.33634657 9.31151288 -18 9 C-15.18137797 8.02450239 -15.18137797 8.02450239 -13 7 C-13.33 6.01 -13.66 5.02 -14 4 C-11.81469839 3.43344032 -9.66474336 2.94276106 -7.4375 2.5625 C-4.56668633 1.90000454 -2.93451733 0 0 0 Z " fill="#21312B" transform="translate(193,149)"/>
<path d="M0 0 C0.33 1.32 0.66 2.64 1 4 C0.01 3.67 -0.98 3.34 -2 3 C-1 1 -1 1 0 0 Z M-3 3 C-2.67 3 -2.34 3 -2 3 C-2 4.65 -2 6.3 -2 8 C-3.32 7.67 -4.64 7.34 -6 7 C-5.67 6.01 -5.34 5.02 -5 4 C-4.34 4.33 -3.68 4.66 -3 5 C-3 4.34 -3 3.68 -3 3 Z M-7 7 C-6.67 7.99 -6.34 8.98 -6 10 C-5.01 10 -4.02 10 -3 10 C-3.87011719 10.8353125 -3.87011719 10.8353125 -4.7578125 11.6875 C-9.15772454 15.9857639 -13.13228833 20.26992049 -16.71484375 25.26953125 C-18.28893215 27.38904846 -20.06206326 29.21113532 -22 31 C-22 30.34 -22 29.68 -22 29 C-22.66 29 -23.32 29 -24 29 C-23.67 28.34 -23.34 27.68 -23 27 C-22.34 27.33 -21.68 27.66 -21 28 C-21 27.01 -21 26.02 -21 25 C-20.34 25 -19.68 25 -19 25 C-19 24.34 -19 23.68 -19 23 C-18.34 22.67 -17.68 22.34 -17 22 C-16.34227572 18.97065509 -16.34227572 18.97065509 -16 16 C-14.35 16 -12.7 16 -11 16 C-11 15.34 -11 14.68 -11 14 C-11.99 14 -12.98 14 -14 14 C-14 13.34 -14 12.68 -14 12 C-12 10.375 -12 10.375 -10 9 C-9.67 9.66 -9.34 10.32 -9 11 C-8.34 9.68 -7.68 8.36 -7 7 Z " fill="#2E3D39" transform="translate(96,285)"/>
<path d="M0 0 C0.66 0 1.32 0 2 0 C2 0.99 2 1.98 2 3 C-1.33123194 4.92033598 -4.66536085 6.83558767 -8 8.75 C-8.93457031 9.28882813 -9.86914062 9.82765625 -10.83203125 10.3828125 C-22.02552838 16.8014612 -22.02552838 16.8014612 -27 19 C-27.99 18.67 -28.98 18.34 -30 18 C-29.505 16.515 -29.505 16.515 -29 15 C-28.01 15 -27.02 15 -26 15 C-26 14.01 -26 13.02 -26 12 C-25.2575 12.04125 -24.515 12.0825 -23.75 12.125 C-19.85300465 11.94786385 -17.68936078 10.43715562 -14.4375 8.375 C-12 7 -12 7 -9 7 C-9.33 6.01 -9.66 5.02 -10 4 C-7.525 4.495 -7.525 4.495 -5 5 C-5 4.01 -5 3.02 -5 2 C-3.35 2 -1.7 2 0 2 C0 1.34 0 0.68 0 0 Z " fill="#21322B" transform="translate(172,245)"/>
<path d="M0 0 C-2.79598757 2.19318291 -5.61350567 3.95934618 -8.75 5.625 C-12.2615842 7.4994267 -15.73619779 9.4164259 -19.171875 11.42578125 C-20.24550293 12.04815674 -20.24550293 12.04815674 -21.34082031 12.68310547 C-22.76666627 13.51146329 -24.18802425 14.34760077 -25.60449219 15.19189453 C-27.3605723 16.20528293 -29.17744196 17.11171197 -31 18 C-31.99 17.67 -32.98 17.34 -34 17 C-19.6 7 -19.6 7 -15 7 C-15.33 5.35 -15.66 3.7 -16 2 C-15.34 2 -14.68 2 -14 2 C-14 1.34 -14 0.68 -14 0 C-12 1 -10 2 -8 3 C-8 2.34 -8 1.68 -8 1 C-3.375 -1.125 -3.375 -1.125 0 0 Z " fill="#30413A" transform="translate(182,329)"/>
<path d="M0 0 C1.32 0 2.64 0 4 0 C4 2.31 4 4.62 4 7 C-1.75 8.125 -1.75 8.125 -4 7 C-7.08333333 7.75 -7.08333333 7.75 -10 9 C-10.33 9.66 -10.66 10.32 -11 11 C-14.0625 11.625 -14.0625 11.625 -17 12 C-15.56254444 7.68763331 -12.34269579 6.7998733 -8.5 4.875 C-3.95870838 2.83683427 -3.95870838 2.83683427 0 0 Z " fill="#32423E" transform="translate(154,230)"/>
<path d="M0 0 C0 0.66 0 1.32 0 2 C-0.66 2 -1.32 2 -2 2 C-2 2.66 -2 3.32 -2 4 C-1.34 4.66 -0.68 5.32 0 6 C-0.969375 6.12375 -1.93875 6.2475 -2.9375 6.375 C-4.4534375 6.684375 -4.4534375 6.684375 -6 7 C-6.33 7.66 -6.66 8.32 -7 9 C-11.8 10 -11.8 10 -14 10 C-15.66821323 10.32550502 -17.33499557 10.65846063 -19 11 C-18 8 -18 8 -16.44946289 6.92504883 C-15.7971167 6.60560303 -15.14477051 6.28615723 -14.47265625 5.95703125 C-13.40821289 5.43012695 -13.40821289 5.43012695 -12.32226562 4.89257812 C-11.20368164 4.35793945 -11.20368164 4.35793945 -10.0625 3.8125 C-9.32064453 3.44447266 -8.57878906 3.07644531 -7.81445312 2.69726562 C-2.29481679 0 -2.29481679 0 0 0 Z " fill="#2E3E37" transform="translate(157,317)"/>
<path d="M0 0 C0.66 0 1.32 0 2 0 C2 0.66 2 1.32 2 2 C4.31 2 6.62 2 9 2 C5.16713416 5.89061146 1.21140271 9.62055805 -2.8125 13.3125 C-3.40998047 13.86228516 -4.00746094 14.41207031 -4.62304688 14.97851562 C-6.08114922 16.31996978 -7.5404504 17.66012065 -9 19 C-9.66 18.67 -10.32 18.34 -11 18 C-10.360625 17.401875 -9.72125 16.80375 -9.0625 16.1875 C-6.79689611 14.09189663 -6.79689611 14.09189663 -6 11 C-3.9375 9.8125 -3.9375 9.8125 -2 9 C-2 6.69 -2 4.38 -2 2 C-1.34 2 -0.68 2 0 2 C0 1.34 0 0.68 0 0 Z " fill="#32433D" transform="translate(91,113)"/>
<path d="M0 0 C0.99 0.33 1.98 0.66 3 1 C2.67 1.66 2.34 2.32 2 3 C3.32 3.33 4.64 3.66 6 4 C6 3.34 6 2.68 6 2 C10.625 -0.125 10.625 -0.125 14 1 C0.3971268 10.55877577 0.3971268 10.55877577 -7 12 C-7 11.34 -7 10.68 -7 10 C-6.01 9.67 -5.02 9.34 -4 9 C-3.896875 8.05125 -3.79375 7.1025 -3.6875 6.125 C-3 3 -3 3 0 1 C0 0.67 0 0.34 0 0 Z " fill="#2A3934" transform="translate(118,96)"/>
<path d="M0 0 C4.75 1.875 4.75 1.875 7 3 C5.13238675 4.46870557 3.25682812 5.92470221 1.375 7.375 C0.59189453 7.99375 0.59189453 7.99375 -0.20703125 8.625 C-3.66504478 11.27187456 -6.80482361 12.85357042 -11 14 C-11 13.01 -11 12.02 -11 11 C-10.34 11 -9.68 11 -9 11 C-9 10.34 -9 9.68 -9 9 C-6 8 -6 8 -3 9 C-3.33 8.01 -3.66 7.02 -4 6 C-2.97746933 3.40434522 -1.98953324 1.98953324 0 0 Z " fill="#283932" transform="translate(281,265)"/>
<path d="M0 0 C-1 2 -2 4 -3 6 C-4.99609375 6.59765625 -4.99609375 6.59765625 -7.4375 7.0625 C-10.82474047 7.7144301 -10.82474047 7.7144301 -14 9 C-15.13350534 11.01669827 -15.13350534 11.01669827 -16 13 C-16.66 12.67 -17.32 12.34 -18 12 C-19.67654729 12.27942455 -21.34608154 12.60828247 -23 13 C-22 10 -22 10 -18.625 8.1875 C-17.55572266 7.69056641 -17.55572266 7.69056641 -16.46484375 7.18359375 C-12.68002088 5.366159 -9.0646842 3.24983416 -5.41796875 1.171875 C-3 0 -3 0 0 0 Z " fill="#22322B" transform="translate(169,138)"/>
<path d="M0 0 C0.52078125 0.24105469 1.0415625 0.48210937 1.578125 0.73046875 C1.578125 2.39713542 1.578125 4.06380208 1.578125 5.73046875 C0.918125 5.07046875 0.258125 4.41046875 -0.421875 3.73046875 C-3.95650087 3.73536026 -3.95650087 3.73536026 -7.421875 4.73046875 C-8.5719581 6.6971979 -8.5719581 6.6971979 -9.421875 8.73046875 C-11.07881585 9.10919809 -12.74844052 9.43296929 -14.421875 9.73046875 C-15.65040772 10.38118608 -16.85832897 11.07180023 -18.046875 11.79296875 C-21.421875 13.73046875 -21.421875 13.73046875 -24.421875 13.73046875 C-24.421875 13.07046875 -24.421875 12.41046875 -24.421875 11.73046875 C-23.390625 11.23546875 -22.359375 10.74046875 -21.296875 10.23046875 C-18.42651195 8.8158633 -15.65663154 7.29353729 -12.9140625 5.6484375 C-12.29805176 5.28234375 -11.68204102 4.91625 -11.04736328 4.5390625 C-9.80774537 3.79806726 -8.57415106 3.04689047 -7.34716797 2.28515625 C-2.95292084 -0.32863151 -2.95292084 -0.32863151 0 0 Z " fill="#293831" transform="translate(175.421875,392.26953125)"/>
<path d="M0 0 C1.66666667 0 3.33333333 0 5 0 C5 0.66 5 1.32 5 2 C-2.92 6.29 -10.84 10.58 -19 15 C-19.33 14.34 -19.66 13.68 -20 13 C-18.20963542 12.0234375 -16.41927083 11.046875 -14.62890625 10.0703125 C-12.83381685 9.08589976 -12.83381685 9.08589976 -12 7 C-12.66 6.67 -13.32 6.34 -14 6 C-13.01 5.87625 -13.01 5.87625 -12 5.75 C-7.9591873 4.73979683 -3.01230249 3.01230249 0 0 Z " fill="#22322B" transform="translate(215,307)"/>
<path d="M0 0 C0.99 0.33 1.98 0.66 3 1 C-11.7 11 -11.7 11 -15 11 C-14.125 5.25 -14.125 5.25 -13 3 C-11.96875 3.061875 -10.9375 3.12375 -9.875 3.1875 C-5.73643884 2.98724704 -3.61135494 1.88775372 0 0 Z " fill="#B7C4BD" transform="translate(108,167)"/>
<path d="M0 0 C0.99 0.33 1.98 0.66 3 1 C1.91332031 1.85271484 1.91332031 1.85271484 0.8046875 2.72265625 C-5.78906274 7.96349228 -5.78906274 7.96349228 -11.5625 14.0625 C-12.7690625 15.5165625 -12.7690625 15.5165625 -14 17 C-14.66 17 -15.32 17 -16 17 C-15.67257813 16.43796875 -15.34515625 15.8759375 -15.0078125 15.296875 C-13.88214506 12.73140036 -13.7931889 11.03157723 -13.875 8.25 C-13.89304687 7.45078125 -13.91109375 6.6515625 -13.9296875 5.828125 C-13.95289062 5.22484375 -13.97609375 4.6215625 -14 4 C-13.01 4.33 -12.02 4.66 -11 5 C-11 6.32 -11 7.64 -11 9 C-10.3503125 8.01 -10.3503125 8.01 -9.6875 7 C-9.130625 6.34 -8.57375 5.68 -8 5 C-7.01 5 -6.02 5 -5 5 C-5.33 4.01 -5.66 3.02 -6 2 C-4.7934375 1.7834375 -4.7934375 1.7834375 -3.5625 1.5625 C-1.07896294 1.25864751 -1.07896294 1.25864751 0 0 Z " fill="#B3C0B9" transform="translate(78,358)"/>
<path d="M0 0 C-0.875 4.75 -0.875 4.75 -2 7 C-2.5775 6.814375 -3.155 6.62875 -3.75 6.4375 C-6.23144049 5.95499768 -7.60988556 6.28296567 -10 7 C-10.66 7 -11.32 7 -12 7 C-12 7.66 -12 8.32 -12 9 C-13.98 9.66 -15.96 10.32 -18 11 C-18 10.01 -18 9.02 -18 8 C-3.77075099 0 -3.77075099 0 0 0 Z " fill="#2D3C35" transform="translate(216,198)"/>
<path d="M0 0 C0 0.99 0 1.98 0 3 C0.31669821 5.33564933 0.64820803 7.6693782 1 10 C0.34 10 -0.32 10 -1 10 C-1.66 8.68 -2.32 7.36 -3 6 C-3.2475 6.598125 -3.495 7.19625 -3.75 7.8125 C-5.21522152 10.37663767 -6.47377203 11.48426322 -9 13 C-11.75 13.6875 -11.75 13.6875 -14 14 C-14 14.66 -14 15.32 -14 16 C-14.66 15.67 -15.32 15.34 -16 15 C-15.319375 14.319375 -14.63875 13.63875 -13.9375 12.9375 C-13.48761719 12.48632812 -13.03773438 12.03515625 -12.57421875 11.5703125 C-11.43607014 10.43498808 -10.29208825 9.30550131 -9.14453125 8.1796875 C-8.51933594 7.56351562 -7.89414062 6.94734375 -7.25 6.3125 C-6.65703125 5.73113281 -6.0640625 5.14976563 -5.453125 4.55078125 C-3.90358196 3.04486026 -3.90358196 3.04486026 -3 1 C-2.01 0.67 -1.02 0.34 0 0 Z " fill="#B8C7C0" transform="translate(306,79)"/>
<path d="M0 0 C1.21925115 3.65775346 0.65013878 4.5269566 -0.6875 8.0625 C-3.56059565 16.20126922 -5.23843719 24.56698655 -7 33 C-7.33 33 -7.66 33 -8 33 C-7.85936865 30.70800823 -7.71234057 28.41640814 -7.5625 26.125 C-7.48128906 24.84882813 -7.40007813 23.57265625 -7.31640625 22.2578125 C-7 19 -7 19 -6 17 C-6.66 17 -7.32 17 -8 17 C-8 16.34 -8 15.68 -8 15 C-7.01 15 -6.02 15 -5 15 C-4.89042969 14.33613281 -4.78085937 13.67226562 -4.66796875 12.98828125 C-3.78863977 8.09120522 -3.00548286 4.09838572 0 0 Z " fill="#21312B" transform="translate(67,238)"/>
<path d="M0 0 C0 1.32 0 2.64 0 4 C-2.49064888 4.68707555 -4.37886292 5 -7 5 C-10.14186566 5.65836974 -10.14186566 5.65836974 -13 7 C-13.96877057 9.03243548 -13.96877057 9.03243548 -14 11 C-14 10.34 -14 9.68 -14 9 C-14.99 8.67 -15.98 8.34 -17 8 C-16.01 7.34 -15.02 6.68 -14 6 C-14.33 5.34 -14.66 4.68 -15 4 C-4.73214286 -2.36607143 -4.73214286 -2.36607143 0 0 Z " fill="#384945" transform="translate(144,154)"/>
<path d="M0 0 C0.66 0.33 1.32 0.66 2 1 C1.505 1.78375 1.01 2.5675 0.5 3.375 C-1.16537965 5.78552327 -1.16537965 5.78552327 -1 8 C-4.3 8.33 -7.6 8.66 -11 9 C-11 9.66 -11 10.32 -11 11 C-12.32 11.33 -13.64 11.66 -15 12 C-13.48155563 7.74835577 -10.7740352 6.27866277 -7 4 C-6.37996094 3.61199219 -5.75992188 3.22398438 -5.12109375 2.82421875 C-3.45503756 1.81206353 -1.7300942 0.89831814 0 0 Z " fill="#B8C5BF" transform="translate(111,109)"/>
<path d="M0 0 C-2.21954651 1.37257477 -4.44835409 2.72259151 -6.6875 4.0625 C-7.31333984 4.45244141 -7.93917969 4.84238281 -8.58398438 5.24414062 C-11.57866815 7.01586454 -13.43638913 8.04839459 -16.95703125 7.74609375 C-17.63121094 7.49988281 -18.30539063 7.25367188 -19 7 C-18.67 5.35 -18.34 3.7 -18 2 C-16.2365625 2.0928125 -16.2365625 2.0928125 -14.4375 2.1875 C-11.26612697 2.20999201 -9.05576239 1.78582847 -6.1875 0.4375 C-3 -1 -3 -1 0 0 Z " fill="#B8C5BF" transform="translate(233,360)"/>
<path d="M0 0 C2.0625 0.4375 2.0625 0.4375 4 1 C3.401875 1.226875 2.80375 1.45375 2.1875 1.6875 C-0.5778987 3.34673922 -1.38565509 5.24216078 -3 8 C-4.9375 9.875 -4.9375 9.875 -7 11 C-9.35190998 10.72330471 -10.88687074 10.05656463 -13 9 C-13 8.34 -13 7.68 -13 7 C-12.14535156 6.57847656 -11.29070312 6.15695312 -10.41015625 5.72265625 C-9.30542969 5.17480469 -8.20070312 4.62695312 -7.0625 4.0625 C-5.96035156 3.51722656 -4.85820312 2.97195313 -3.72265625 2.41015625 C-1.15205586 1.25295022 -1.15205586 1.25295022 0 0 Z " fill="#293833" transform="translate(199,292)"/>
<path d="M0 0 C0.66 0.33 1.32 0.66 2 1 C-3.59632952 4.96406674 -9.42079706 8.48247341 -15.375 11.875 C-16.07689453 12.28032959 -16.77878906 12.68565918 -17.50195312 13.10327148 C-22.64341338 16 -22.64341338 16 -26 16 C-24.625 14 -24.625 14 -23 12 C-22.34 12 -21.68 12 -21 12 C-21 11.34 -21 10.68 -21 10 C-20.071875 9.79375 -19.14375 9.5875 -18.1875 9.375 C-11.63286374 7.52522535 -5.63068873 3.75379249 0 0 Z " fill="#1E2F29" transform="translate(124,273)"/>
<path d="M0 0 C5.875 1.875 5.875 1.875 7 3 C7.66 3 8.32 3 9 3 C8.875 5.25 8.875 5.25 8 8 C4.9375 10.3125 4.9375 10.3125 2 12 C-0.60018816 8.09971775 -0.15085514 4.52565431 0 0 Z " fill="#A7B5AA" transform="translate(59,277)"/>
<path d="M0 0 C-1.28062485 1.7074998 -2.61767557 3.37373596 -4 5 C-4.66 5 -5.32 5 -6 5 C-6.433125 5.9590625 -6.433125 5.9590625 -6.875 6.9375 C-8 9 -8 9 -10 10 C-10 9.34 -10 8.68 -10 8 C-10.66 7.67 -11.32 7.34 -12 7 C-12.33 7.99 -12.66 8.98 -13 10 C-13.99 9.34 -14.98 8.68 -16 8 C-6.09550562 -0.52247191 -6.09550562 -0.52247191 0 0 Z " fill="#2C3D36" transform="translate(136,243)"/>
<path d="M0 0 C0.33 0.66 0.66 1.32 1 2 C-6.80474453 14.60766423 -6.80474453 14.60766423 -12 18 C-14.2109375 17.6796875 -14.2109375 17.6796875 -16 17 C-15.505 15.515 -15.505 15.515 -15 14 C-14.01 14 -13.02 14 -12 14 C-11.34 12.35 -10.68 10.7 -10 9 C-9.01 9 -8.02 9 -7 9 C-5.08492222 7.00724825 -5.08492222 7.00724825 -3.3125 4.5 C-2.68988281 3.6646875 -2.06726563 2.829375 -1.42578125 1.96875 C-0.95527344 1.3190625 -0.48476563 0.669375 0 0 Z " fill="#B8C8C0" transform="translate(290,314)"/>
<path d="M0 0 C0.99 0.33 1.98 0.66 3 1 C2.38125 1.598125 1.7625 2.19625 1.125 2.8125 C-1.08412408 5.08659832 -2.67476513 7.14938573 -3.8125 10.125 C-5 12 -5 12 -7.5625 12.625 C-8.366875 12.74875 -9.17125 12.8725 -10 13 C-10.33 13.66 -10.66 14.32 -11 15 C-12.32 14.67 -13.64 14.34 -15 14 C-10.05 9.38 -5.1 4.76 0 0 Z " fill="#B9C6BF" transform="translate(298,172)"/>
<path d="M0 0 C0 0.66 0 1.32 0 2 C-0.99 2.33 -1.98 2.66 -3 3 C-3.33 3.66 -3.66 4.32 -4 5 C-6 5.66666667 -8 6.33333333 -10 7 C-10.33 7.66 -10.66 8.32 -11 9 C-13.4375 10.1875 -13.4375 10.1875 -16 11 C-16.66 10.67 -17.32 10.34 -18 10 C-17 7 -17 7 -13.9453125 5.17578125 C-12.67700156 4.54428471 -11.40327661 3.92357235 -10.125 3.3125 C-9.48691406 2.99216797 -8.84882813 2.67183594 -8.19140625 2.34179688 C-5.28123856 0.91709056 -3.28002036 0 0 0 Z " fill="#B3C2BA" transform="translate(198,322)"/>
<path d="M0 0 C-4.33397477 5.52955402 -9.28969018 6.5545217 -16 8 C-14.54249246 4.17608977 -12.75128879 2.96836289 -9.125 1.1875 C-8.26132813 0.74792969 -7.39765625 0.30835938 -6.5078125 -0.14453125 C-3.79276303 -1.07069298 -2.63940258 -1.00051772 0 0 Z " fill="#B9C6BF" transform="translate(191,241)"/>
<path d="M0 0 C1.32 0 2.64 0 4 0 C3.67 2.31 3.34 4.62 3 7 C2.01 7.33 1.02 7.66 0 8 C-1.23277127 9.86022072 -1.23277127 9.86022072 -2.1875 12.0625 C-2.53167969 12.79597656 -2.87585938 13.52945313 -3.23046875 14.28515625 C-3.48441406 14.85105469 -3.73835938 15.41695312 -4 16 C-4.99 16 -5.98 16 -7 16 C-6.38545304 12.00544473 -4.29353263 9.25533664 -2 6 C-2.66 5.34 -3.32 4.68 -4 4 C-2.68 3.67 -1.36 3.34 0 3 C0 2.01 0 1.02 0 0 Z " fill="#394A43" transform="translate(72,135)"/>
<path d="M0 0 C0 0.99 0 1.98 0 3 C-2.74272401 4.5135972 -5.49525633 6.00840709 -8.25 7.5 C-9.02730469 7.92925781 -9.80460938 8.35851562 -10.60546875 8.80078125 C-11.35957031 9.20683594 -12.11367187 9.61289063 -12.890625 10.03125 C-13.58188477 10.40830078 -14.27314453 10.78535156 -14.98535156 11.17382812 C-17 12 -17 12 -21 12 C-21 11.34 -21 10.68 -21 10 C-19.68 10 -18.36 10 -17 10 C-17 9.34 -17 8.68 -17 8 C-14.09399739 6.74335022 -12.20395416 6 -9 6 C-8.67 5.01 -8.34 4.02 -8 3 C-7.34 3.33 -6.68 3.66 -6 4 C-6.33 3.01 -6.66 2.02 -7 1 C-3.535 0.505 -3.535 0.505 0 0 Z " fill="#C0CEC8" transform="translate(247,177)"/>
<path d="M0 0 C1.98 0 3.96 0 6 0 C5.80859375 1.796875 5.80859375 1.796875 5 4 C2.78515625 5.703125 2.78515625 5.703125 0.0625 7.25 C-1.28134766 8.03117187 -1.28134766 8.03117187 -2.65234375 8.828125 C-5 10 -5 10 -7 10 C-7 8.68 -7 7.36 -7 6 C-6.34 6 -5.68 6 -5 6 C-5 5.34 -5 4.68 -5 4 C-3.68 4 -2.36 4 -1 4 C-0.67 2.68 -0.34 1.36 0 0 Z " fill="#A4B1AA" transform="translate(111,335)"/>
<path d="M0 0 C0.33 0 0.66 0 1 0 C1.3690205 16.8929385 1.3690205 16.8929385 -1 24 C-3.60018816 20.09971775 -3.15085514 16.52565431 -3 12 C-2.34 12 -1.68 12 -1 12 C-1.01160156 11.21753906 -1.02320313 10.43507812 -1.03515625 9.62890625 C-1.04417969 8.61699219 -1.05320313 7.60507813 -1.0625 6.5625 C-1.07410156 5.55316406 -1.08570313 4.54382813 -1.09765625 3.50390625 C-1 1 -1 1 0 0 Z " fill="#1B2B26" transform="translate(58,188)"/>
<path d="M0 0 C0 0.99 0 1.98 0 3 C-2.06651464 4.84541821 -4.09187219 6.48725749 -6.3125 8.125 C-6.90740234 8.58003906 -7.50230469 9.03507812 -8.11523438 9.50390625 C-10.71873233 11.46452929 -12.88860522 12.96286841 -16 14 C-15 11 -15 11 -12.9375 9.5 C-12.298125 9.005 -11.65875 8.51 -11 8 C-11 7.01 -11 6.02 -11 5 C-9.68 5 -8.36 5 -7 5 C-6.67 4.01 -6.34 3.02 -6 2 C-2.9375 0.8125 -2.9375 0.8125 0 0 Z " fill="#1F2F27" transform="translate(291,90)"/>
<path d="M0 0 C4.27186525 1.52853935 7.99326863 3.71509481 11.8125 6.125 C12.40998047 6.49753906 13.00746094 6.87007813 13.62304688 7.25390625 C15.08426251 8.1657048 16.54244585 9.08235976 18 10 C17.01 10.33 16.02 10.66 15 11 C13.32260138 10.01810813 11.65532623 9.01866229 10 8 C9.01 8.495 9.01 8.495 8 9 C5.875 8.0625 5.875 8.0625 4 7 C4 6.34 4 5.68 4 5 C3.34 5 2.68 5 2 5 C2 4.34 2 3.68 2 3 C1.34 3 0.68 3 0 3 C0 2.01 0 1.02 0 0 Z " fill="#23332D" transform="translate(108,382)"/>
<path d="M0 0 C-1.49498716 1.22921167 -2.99032935 2.45799674 -4.48828125 3.68359375 C-6.09309944 5.00193023 -6.09309944 5.00193023 -7.5 6.875 C-9 8 -9 8 -12.1875 7.6875 C-13.115625 7.460625 -14.04375 7.23375 -15 7 C-14 4 -14 4 -11.85546875 2.578125 C-10.97503906 2.13984375 -10.09460938 1.7015625 -9.1875 1.25 C-8.31480469 0.80140625 -7.44210938 0.3528125 -6.54296875 -0.109375 C-3.80064256 -1.06982104 -2.6686569 -1.02018585 0 0 Z " fill="#ACBCB5" transform="translate(114,370)"/>
<path d="M0 0 C-1 3 -1 3 -4.0625 4.6875 C-5.031875 5.120625 -6.00125 5.55375 -7 6 C-6.67 6.66 -6.34 7.32 -6 8 C-6.69867188 8.20496094 -7.39734375 8.40992188 -8.1171875 8.62109375 C-9.02726563 8.89050781 -9.93734375 9.15992188 -10.875 9.4375 C-12.23238281 9.83775391 -12.23238281 9.83775391 -13.6171875 10.24609375 C-15.98275381 10.92613826 -15.98275381 10.92613826 -18 12 C-18 11.01 -18 10.02 -18 9 C-17.360625 8.87625 -16.72125 8.7525 -16.0625 8.625 C-15.381875 8.41875 -14.70125 8.2125 -14 8 C-13.67 7.34 -13.34 6.68 -13 6 C-9.51323577 2.91555472 -4.74591564 0 0 0 Z " fill="#394C48" transform="translate(198,230)"/>
<path d="M0 0 C0 0.66 0 1.32 0 2 C0.66 2.33 1.32 2.66 2 3 C-1.13349732 4.04449911 -1.98968256 3.93423645 -5 3 C-5 3.99 -5 4.98 -5 6 C-6.32 6.33 -7.64 6.66 -9 7 C-9.33 8.32 -9.66 9.64 -10 11 C-10.33 10.34 -10.66 9.68 -11 9 C-12.65 9 -14.3 9 -16 9 C-12.1305235 4.45757106 -6.1119872 0 0 0 Z " fill="#B7C5BF" transform="translate(247,122)"/>
<path d="M0 0 C0.66 0 1.32 0 2 0 C2 0.99 2 1.98 2 3 C1.28714844 3.38671875 0.57429688 3.7734375 -0.16015625 4.171875 C-1.11792969 4.69265625 -2.07570312 5.2134375 -3.0625 5.75 C-4.06410156 6.29269531 -5.06570312 6.83539063 -6.09765625 7.39453125 C-8.4392633 8.68982129 -10.7196001 10.03983555 -13 11.4375 C-14.485 12.2109375 -14.485 12.2109375 -16 13 C-16.99 12.67 -17.98 12.34 -19 12 C-14.25 9 -14.25 9 -12 9 C-12 8.34 -12 7.68 -12 7 C-11.34 7 -10.68 7 -10 7 C-10 6.34 -10 5.68 -10 5 C-9.34 5 -8.68 5 -8 5 C-7.67 3.68 -7.34 2.36 -7 1 C-7 1.99 -7 2.98 -7 4 C-3.25332798 2.3672149 -3.25332798 2.3672149 0 0 Z " fill="#BDCBC2" transform="translate(194,119)"/>
<path d="M0 0 C1.32 0.33 2.64 0.66 4 1 C4 1.66 4 2.32 4 3 C5.65 2.67 7.3 2.34 9 2 C8 4 8 4 6 4.9375 C3.65391779 5.8891846 3.65391779 5.8891846 3 9 C-2.75 10 -2.75 10 -5 10 C-5 9.34 -5 8.68 -5 8 C-2.04518508 5.25624329 -1.22528092 5 3 5 C2.01 4.67 1.02 4.34 0 4 C0 2.68 0 1.36 0 0 Z " fill="#384A46" transform="translate(239,288)"/>
<path d="M0 0 C-2.41557788 1.46016275 -4.83240371 2.91818597 -7.25 4.375 C-7.93191406 4.7875 -8.61382812 5.2 -9.31640625 5.625 C-9.98027344 6.02460937 -10.64414063 6.42421875 -11.328125 6.8359375 C-11.9355957 7.20251465 -12.54306641 7.5690918 -13.16894531 7.94677734 C-18.47705146 11 -18.47705146 11 -22 11 C-22 10.34 -22 9.68 -22 9 C-16.25 6 -16.25 6 -14 6 C-14.33 5.01 -14.66 4.02 -15 3 C-13.8553125 3.0928125 -13.8553125 3.0928125 -12.6875 3.1875 C-9.44363031 2.96118351 -9.16055611 2.25057928 -7 0 C-2.58461538 -1.29230769 -2.58461538 -1.29230769 0 0 Z " fill="#C0CCC6" transform="translate(232,101)"/>
<path d="M0 0 C-2.43662168 1.4707978 -4.8758197 2.93683795 -7.3203125 4.39453125 C-8.9275231 5.35745189 -10.52871516 6.33069085 -12.1171875 7.32421875 C-13.70051799 8.29256465 -15.34677159 9.15651612 -17 10 C-17.99 9.67 -18.98 9.34 -20 9 C-19.34 9 -18.68 9 -18 9 C-18 7.68 -18 6.36 -18 5 C-13.25 3.875 -13.25 3.875 -11 5 C-11 4.34 -11 3.68 -11 3 C-10.34 3 -9.68 3 -9 3 C-9 2.34 -9 1.68 -9 1 C-3.375 -1.125 -3.375 -1.125 0 0 Z " fill="#BBC9C2" transform="translate(196,380)"/>
<path d="M0 0 C0.66 0 1.32 0 2 0 C1.44584153 4.17865441 0.08699868 6.72806512 -2.375 10.125 C-2.98085937 10.97320312 -3.58671875 11.82140625 -4.2109375 12.6953125 C-5.711239 14.6280153 -7.21990628 16.32911448 -9 18 C-8.34000585 15.20288194 -7.54099721 12.51477469 -6.5625 9.8125 C-6.31628906 9.11769531 -6.07007812 8.42289063 -5.81640625 7.70703125 C-5 6 -5 6 -3 5 C-2.505 4.154375 -2.01 3.30875 -1.5 2.4375 C-1.005 1.633125 -0.51 0.82875 0 0 Z " fill="#2A3933" transform="translate(78,218)"/>
<path d="M0 0 C-1.12019531 0.62648437 -2.24039063 1.25296875 -3.39453125 1.8984375 C-4.86722287 2.72389523 -6.33987718 3.54941954 -7.8125 4.375 C-8.55048828 4.7875 -9.28847656 5.2 -10.04882812 5.625 C-10.76103516 6.02460937 -11.47324219 6.42421875 -12.20703125 6.8359375 C-12.8616333 7.20251465 -13.51623535 7.5690918 -14.19067383 7.94677734 C-15.83176306 8.90206799 -17.4200344 9.9466896 -19 11 C-19.99 11 -20.98 11 -22 11 C-22 10.34 -22 9.68 -22 9 C-21.01 9 -20.02 9 -19 9 C-18.67 8.01 -18.34 7.02 -18 6 C-14.9375 4.8125 -14.9375 4.8125 -12 4 C-12 3.34 -12 2.68 -12 2 C-10.88625 1.814375 -10.88625 1.814375 -9.75 1.625 C-7.02462728 1.13110544 -7.02462728 1.13110544 -4.875 -0.125 C-3 -1 -3 -1 0 0 Z " fill="#21302A" transform="translate(214,52)"/>
<path d="M0 0 C0.66 0 1.32 0 2 0 C0.5479686 3.16284067 -1.22942143 5.76415308 -3.375 8.5 C-3.96023437 9.2528125 -4.54546875 10.005625 -5.1484375 10.78125 C-6.98992934 12.9879322 -8.93711934 15.0007324 -11 17 C-11 16.34 -11 15.68 -11 15 C-11.66 15 -12.32 15 -13 15 C-12.67 14.34 -12.34 13.68 -12 13 C-11.34 13.33 -10.68 13.66 -10 14 C-10 13.01 -10 12.02 -10 11 C-9.34 11 -8.68 11 -8 11 C-8 10.34 -8 9.68 -8 9 C-7.34 8.67 -6.68 8.34 -6 8 C-5.34227572 4.97065509 -5.34227572 4.97065509 -5 2 C-3.35 2 -1.7 2 0 2 C0 1.34 0 0.68 0 0 Z " fill="#202F28" transform="translate(85,299)"/>
<path d="M0 0 C0.52078125 0.23589844 1.0415625 0.47179687 1.578125 0.71484375 C0.588125 1.20984375 0.588125 1.20984375 -0.421875 1.71484375 C-0.751875 2.70484375 -1.081875 3.69484375 -1.421875 4.71484375 C-4.07421875 5.8828125 -4.07421875 5.8828125 -7.359375 6.90234375 C-8.44089844 7.24652344 -9.52242187 7.59070313 -10.63671875 7.9453125 C-13.421875 8.71484375 -13.421875 8.71484375 -15.421875 8.71484375 C-15.421875 8.05484375 -15.421875 7.39484375 -15.421875 6.71484375 C-13.34614419 5.51199974 -11.26304405 4.32778674 -9.171875 3.15234375 C-8.29208984 2.63897461 -8.29208984 2.63897461 -7.39453125 2.11523438 C-2.96392641 -0.34897843 -2.96392641 -0.34897843 0 0 Z " fill="#BAC7C2" transform="translate(208.421875,143.28515625)"/>
<path d="M0 0 C-3 2 -3 2 -5 3 C-5 4.32 -5 5.64 -5 7 C-8.71438673 8.06125335 -12.14694846 8 -16 8 C-16 7.34 -16 6.68 -16 6 C-14.27843904 4.98696238 -12.54738194 3.99005152 -10.8125 3 C-9.84957031 2.443125 -8.88664062 1.88625 -7.89453125 1.3125 C-4.95111257 -0.02216758 -3.18119943 -0.27915461 0 0 Z " fill="#2D4037" transform="translate(277,78)"/>
<path d="M0 0 C0.33 1.65 0.66 3.3 1 5 C-1.97 4.505 -1.97 4.505 -5 4 C-5 4.66 -5 5.32 -5 6 C-7.64 6.66 -10.28 7.32 -13 8 C-11.16685886 2.50057657 -5.82692965 -0.88286813 0 0 Z " fill="#24322C" transform="translate(98,265)"/>
<path d="M0 0 C-1.91747815 1.2152329 -3.8396617 2.42169309 -5.76953125 3.6171875 C-7.17018002 4.48554068 -8.56450413 5.3642692 -9.94921875 6.2578125 C-14.45879174 9.05550854 -14.45879174 9.05550854 -17.4375 8.75 C-17.953125 8.5025 -18.46875 8.255 -19 8 C-18.01 7.34 -17.02 6.68 -16 6 C-16 5.34 -16 4.68 -16 4 C-14.68 4 -13.36 4 -12 4 C-11.38125 3.360625 -10.7625 2.72125 -10.125 2.0625 C-7.17986073 -0.79601753 -3.8065977 -1.90329885 0 0 Z " fill="#16261F" transform="translate(221,221)"/>
<path d="M0 0 C0 0.99 0 1.98 0 3 C-2.40625 5.04296875 -2.40625 5.04296875 -5.5 7.1875 C-6.5209375 7.90292969 -7.541875 8.61835938 -8.59375 9.35546875 C-9.3878125 9.89816406 -10.181875 10.44085938 -11 11 C-11.66 10.67 -12.32 10.34 -13 10 C-12.42655063 7.13275314 -12.1385485 6.1385485 -10 4 C-9.67 3.34 -9.34 2.68 -9 2 C-8.2575 2.04125 -7.515 2.0825 -6.75 2.125 C-3.91241048 1.99601866 -2.41226062 1.42948778 0 0 Z " fill="#23332D" transform="translate(105,197)"/>
<path d="M0 0 C0.5775 0.37125 1.155 0.7425 1.75 1.125 C-1.6811328 4.73671874 -5.51194052 8.38771152 -10.25 10.125 C-11.24 9.795 -12.23 9.465 -13.25 9.125 C-11.19766315 6.8772025 -10.24332739 6.1227758 -7.25 5.125 C-7.105625 4.485625 -6.96125 3.84625 -6.8125 3.1875 C-6.25 1.125 -6.25 1.125 -4.4375 -0.25 C-2.25 -0.875 -2.25 -0.875 0 0 Z " fill="#394A45" transform="translate(172.25,308.875)"/>
<path d="M0 0 C-0.125 1.75 -0.125 1.75 -1 4 C-4.82766573 7.11554188 -8.03356211 8.77425282 -13 9 C-13.66 8.34 -14.32 7.68 -15 7 C-12.87767021 5.82823482 -10.75242209 4.66245215 -8.625 3.5 C-7.72007812 2.99919922 -7.72007812 2.99919922 -6.796875 2.48828125 C-2.2265625 0 -2.2265625 0 0 0 Z " fill="#A2B0A8" transform="translate(222,221)"/>
<path d="M0 0 C1.03335057 3.18608918 0.93857633 5.1622712 0.0390625 8.37109375 C-0.29738281 9.60375977 -0.29738281 9.60375977 -0.640625 10.86132812 C-0.88296875 11.71146484 -1.1253125 12.56160156 -1.375 13.4375 C-1.84236708 15.12335983 -2.30854811 16.809549 -2.7734375 18.49609375 C-2.9909668 19.27968262 -3.20849609 20.06327148 -3.43261719 20.87060547 C-4.0613451 23.23022889 -4.57534129 25.59524663 -5 28 C-5.33 28 -5.66 28 -6 28 C-5.42107479 17.86880883 -3.64247297 9.43731633 0 0 Z " fill="#1B2B24" transform="translate(65,155)"/>
<path d="M0 0 C0.66 0 1.32 0 2 0 C1.55149342 1.81495662 1.09090429 3.62693134 0.625 5.4375 C0.36976563 6.44683594 0.11453125 7.45617187 -0.1484375 8.49609375 C-1 11 -1 11 -3 12 C-3 11.34 -3 10.68 -3 10 C-3.66 10 -4.32 10 -5 10 C-5.28875 10.639375 -5.5775 11.27875 -5.875 11.9375 C-7 14 -7 14 -9 15 C-8.38644969 11.0355211 -6.40143734 8.4475346 -4.0625 5.25 C-2.99708984 3.77273437 -2.99708984 3.77273437 -1.91015625 2.265625 C-1.27980469 1.51796875 -0.64945312 0.7703125 0 0 Z " fill="#23352D" transform="translate(293,140)"/>
<path d="M0 0 C0.66 0.33 1.32 0.66 2 1 C2 1.99 2 2.98 2 4 C1.34 4 0.68 4 0 4 C-0.33 4.66 -0.66 5.32 -1 6 C-1.99 6.66 -2.98 7.32 -4 8 C-5.20450304 10.55183404 -5.20450304 10.55183404 -6 13 C-6.66 11.68 -7.32 10.36 -8 9 C-7.67 8.67 -7.34 8.34 -7 8 C-7.99 7.34 -8.98 6.68 -10 6 C-8.3811004 4.96951963 -6.75467511 3.95085322 -5.125 2.9375 C-4.22007813 2.36902344 -3.31515625 1.80054688 -2.3828125 1.21484375 C-1.20332031 0.61349609 -1.20332031 0.61349609 0 0 Z " fill="#364942" transform="translate(120,249)"/>
<path d="M0 0 C1.27818051 3.83454154 0.45581372 4.7967126 -1.25 8.375 C-1.90742188 9.77878906 -1.90742188 9.77878906 -2.578125 11.2109375 C-3.94973918 13.90141147 -5.30735791 16.49743777 -7 19 C-7.66 19 -8.32 19 -9 19 C-8.01 15.7 -7.02 12.4 -6 9 C-5.34 9 -4.68 9 -4 9 C-3.566875 7.329375 -3.566875 7.329375 -3.125 5.625 C-2 2 -2 2 0 0 Z " fill="#BECDC8" transform="translate(300,122)"/>
<path d="M0 0 C0.66 0 1.32 0 2 0 C1.9296875 1.73046875 1.9296875 1.73046875 1 4 C-1.28584397 5.62815229 -3.43004647 6.97777986 -5.875 8.3125 C-6.51308594 8.68439453 -7.15117187 9.05628906 -7.80859375 9.43945312 C-9.49171371 10.38291389 -11.24393387 11.20047342 -13 12 C-13.99 11.67 -14.98 11.34 -16 11 C-15.34 11 -14.68 11 -14 11 C-14 10.34 -14 9.68 -14 9 C-13.360625 8.71125 -12.72125 8.4225 -12.0625 8.125 C-9.84793921 7.17176549 -9.84793921 7.17176549 -9 5 C-6.93359375 4.3671875 -6.93359375 4.3671875 -4.4375 3.875 C-3.61121094 3.70742187 -2.78492188 3.53984375 -1.93359375 3.3671875 C-0.97646484 3.18542969 -0.97646484 3.18542969 0 3 C0 2.01 0 1.02 0 0 Z " fill="#24342E" transform="translate(262,108)"/>
<path d="M0 0 C1.65 0 3.3 0 5 0 C5 0.99 5 1.98 5 3 C6.98 2.67 8.96 2.34 11 2 C12.0625 3.875 12.0625 3.875 13 6 C12.67 6.66 12.34 7.32 12 8 C11.01 8 10.02 8 9 8 C9 7.34 9 6.68 9 6 C7.68 6 6.36 6 5 6 C5 5.34 5 4.68 5 4 C3.35 3.67 1.7 3.34 0 3 C0 2.01 0 1.02 0 0 Z " fill="#2D3D38" transform="translate(249,61)"/>
<path d="M0 0 C-0.33 0.99 -0.66 1.98 -1 3 C-1.99 3.33 -2.98 3.66 -4 4 C-4.33 4.66 -4.66 5.32 -5 6 C-7.97 6 -10.94 6 -14 6 C-10.31063898 1.88494347 -5.74338985 -2.42989571 0 0 Z " fill="#273732" transform="translate(203,379)"/>
<path d="M0 0 C0.66 0.33 1.32 0.66 2 1 C2.99 0.67 3.98 0.34 5 0 C5 0.99 5 1.98 5 3 C4.030625 3.28875 3.06125 3.5775 2.0625 3.875 C-1.10664203 4.64214682 -1.10664203 4.64214682 -2 7 C-4.0625 7.625 -4.0625 7.625 -6 8 C-6.66 6.68 -7.32 5.36 -8 4 C-6.71349294 3.30289269 -5.42059335 2.61757124 -4.125 1.9375 C-3.40570313 1.55464844 -2.68640625 1.17179687 -1.9453125 0.77734375 C-1.30335938 0.52082031 -0.66140625 0.26429688 0 0 Z " fill="#3F4F4A" transform="translate(132,329)"/>
<path d="M0 0 C0 0.99 0 1.98 0 3 C-0.83144531 3.39832031 -1.66289062 3.79664063 -2.51953125 4.20703125 C-3.60621094 4.73683594 -4.69289062 5.26664062 -5.8125 5.8125 C-7.43091797 6.59560547 -7.43091797 6.59560547 -9.08203125 7.39453125 C-11.6007336 8.78032331 -13.03939316 9.99037798 -15 12 C-17.1875 11.6875 -17.1875 11.6875 -19 11 C-16.9086545 8.72753662 -14.97741243 7.30897727 -12.20703125 5.95703125 C-11.49482422 5.60576172 -10.78261719 5.25449219 -10.04882812 4.89257812 C-9.31083984 4.53615234 -8.57285156 4.17972656 -7.8125 3.8125 C-7.06291016 3.44447266 -6.31332031 3.07644531 -5.54101562 2.69726562 C-3.69667788 1.79271782 -1.84868755 0.89562424 0 0 Z " fill="#BDCBC4" transform="translate(147,263)"/>
<path d="M0 0 C0.66 0 1.32 0 2 0 C2.22262303 6.7281627 1.95021536 12.53991163 0 19 C-0.33 18.01 -0.66 17.02 -1 16 C-1.66 16 -2.32 16 -3 16 C-2.125 11.125 -2.125 11.125 -1 10 C-0.76712992 8.31816052 -0.58735834 6.6287584 -0.4375 4.9375 C-0.31181641 3.55884766 -0.31181641 3.55884766 -0.18359375 2.15234375 C-0.12300781 1.44207031 -0.06242187 0.73179687 0 0 Z " fill="#B6C4BE" transform="translate(306,176)"/>
<path d="M0 0 C-0.33 0.99 -0.66 1.98 -1 3 C-1.94875 3.0825 -2.8975 3.165 -3.875 3.25 C-7.10461791 3.65074923 -7.10461791 3.65074923 -8.375 6.0625 C-8.58125 6.701875 -8.7875 7.34125 -9 8 C-9.66 7.67 -10.32 7.34 -11 7 C-11.33 7.66 -11.66 8.32 -12 9 C-12 5.7611766 -11.80935423 4.63178797 -10 2 C-6.42725084 -0.25238534 -4.06349995 -1.71917305 0 0 Z " fill="#A5B2AA" transform="translate(133,99)"/>
<path d="M0 0 C0.99 0.66 1.98 1.32 3 2 C2.32829194 5.8063457 1.27253436 9.35206816 0 13 C-0.33 12.01 -0.66 11.02 -1 10 C-0.67 9.34 -0.34 8.68 0 8 C-0.66 8 -1.32 8 -2 8 C-2 9.65 -2 11.3 -2 13 C-2.33 13 -2.66 13 -3 13 C-3 9.04 -3 5.08 -3 1 C-2.01 1.495 -2.01 1.495 -1 2 C-0.67 1.34 -0.34 0.68 0 0 Z " fill="#485855" transform="translate(309,95)"/>
<path d="M0 0 C0.66 0.33 1.32 0.66 2 1 C2.59355614 3.64860427 2.74209269 6.29197322 3 9 C2.34 9 1.68 9 1 9 C1.02320313 9.61488281 1.04640625 10.22976563 1.0703125 10.86328125 C1.08835938 11.67152344 1.10640625 12.47976563 1.125 13.3125 C1.14820313 14.11300781 1.17140625 14.91351563 1.1953125 15.73828125 C1 18 1 18 -1 21 C-1.02888146 17.68751813 -1.04675799 14.37506833 -1.0625 11.0625 C-1.07087891 10.11697266 -1.07925781 9.17144531 -1.08789062 8.19726562 C-1.09111328 7.29814453 -1.09433594 6.39902344 -1.09765625 5.47265625 C-1.10289307 4.64000244 -1.10812988 3.80734863 -1.11352539 2.94946289 C-1 1 -1 1 0 0 Z " fill="#B6C4BD" transform="translate(62,351)"/>
<path d="M0 0 C0 0.66 0 1.32 0 2 C-2.92821855 3.70400669 -5.868888 5.38524739 -8.8125 7.0625 C-9.64587891 7.54783203 -10.47925781 8.03316406 -11.33789062 8.53320312 C-12.14033203 8.98759766 -12.94277344 9.44199219 -13.76953125 9.91015625 C-14.50792236 10.33433838 -15.24631348 10.75852051 -16.00708008 11.19555664 C-18 12 -18 12 -21 11 C-5.35051546 0 -5.35051546 0 0 0 Z " fill="#273631" transform="translate(169,335)"/>
<path d="M0 0 C0.66 0 1.32 0 2 0 C3.5056904 5.80766296 4.21824777 10.9981863 4 17 C2 14 2 14 2 12 C1.34 11.67 0.68 11.34 0 11 C-0.44921875 9.00390625 -0.44921875 9.00390625 -0.6875 6.5625 C-0.77386719 5.75941406 -0.86023437 4.95632812 -0.94921875 4.12890625 C-1 2 -1 2 0 0 Z " fill="#3C4C46" transform="translate(56,174)"/>
<path d="M0 0 C0.99 0.33 1.98 0.66 3 1 C1.25 5.875 1.25 5.875 -1 7 C-1.65213292 9.02463255 -1.65213292 9.02463255 -2 11 C-2.66 11 -3.32 11 -4 11 C-3.67 12.32 -3.34 13.64 -3 15 C-3.99 14.67 -4.98 14.34 -6 14 C-6.36539443 9.71422781 -5.48423598 7.65507938 -3 4.1875 C-2.1646875 3.00220703 -2.1646875 3.00220703 -1.3125 1.79296875 C-0.879375 1.20128906 -0.44625 0.60960937 0 0 Z " fill="#BAC7BF" transform="translate(77,137)"/>
<path d="M0 0 C0 0.66 0 1.32 0 2 C-0.78503906 2.38671875 -1.57007813 2.7734375 -2.37890625 3.171875 C-9.33306188 6.59854326 -9.33306188 6.59854326 -16.0625 10.4375 C-17.031875 10.953125 -18.00125 11.46875 -19 12 C-19.99 11.67 -20.98 11.34 -22 11 C-4.23367698 0 -4.23367698 0 0 0 Z " fill="#BCC9C3" transform="translate(185,299)"/>
<path d="M0 0 C0.66 0.33 1.32 0.66 2 1 C1.690625 1.5775 1.38125 2.155 1.0625 2.75 C0.07416636 4.84294184 -0.5168613 6.74535275 -1 9 C-3.31 9.66 -5.62 10.32 -8 11 C-6.52670958 5.99081256 -3.72484762 3.48192278 0 0 Z " fill="#B7C4BC" transform="translate(84,217)"/>
<path d="M0 0 C0.33 0.66 0.66 1.32 1 2 C1.99 1.67 2.98 1.34 4 1 C2.53824146 4.88694884 0.69873837 6.00815228 -3 7.75 C-3.886875 8.17796875 -4.77375 8.6059375 -5.6875 9.046875 C-8 10 -8 10 -10 10 C-10 9.34 -10 8.68 -10 8 C-7.04518508 5.25624329 -6.22528092 5 -2 5 C-1.855625 4.360625 -1.71125 3.72125 -1.5625 3.0625 C-1 1 -1 1 0 0 Z " fill="#C0CCC4" transform="translate(182,210)"/>
<path d="M0 0 C1.65 0.33 3.3 0.66 5 1 C1.88628118 4.38060901 -0.54087397 6.70920036 -5 8 C-5.99 8 -6.98 8 -8 8 C-8 7.01 -8 6.02 -8 5 C-6.576875 4.87625 -6.576875 4.87625 -5.125 4.75 C-1.89538209 4.34925077 -1.89538209 4.34925077 -0.625 1.9375 C-0.41875 1.298125 -0.2125 0.65875 0 0 Z " fill="#B7C4BF" transform="translate(141,147)"/>
<path d="M0 0 C1.32 0 2.64 0 4 0 C4 0.66 4 1.32 4 2 C3.01 2 2.02 2 1 2 C1.33 3.32 1.66 4.64 2 6 C-1.3125 7.625 -1.3125 7.625 -5 9 C-5.99 8.34 -6.98 7.68 -8 7 C-7.67 6.34 -7.34 5.68 -7 5 C-6.01 5 -5.02 5 -4 5 C-3.67 4.01 -3.34 3.02 -3 2 C-2.01 2 -1.02 2 0 2 C0 1.34 0 0.68 0 0 Z " fill="#A2B2A8" transform="translate(265,76)"/>
<path d="M0 0 C0.99 0.33 1.98 0.66 3 1 C1.75 2.5 1.75 2.5 0 4 C-1.32 4 -2.64 4 -4 4 C-4.33 4.99 -4.66 5.98 -5 7 C-8.21284338 8.88579937 -10.24633583 10 -14 10 C-12.68682429 6.06047287 -11.18611861 5.75042289 -7.5625 3.875 C-6.07943359 3.09769531 -6.07943359 3.09769531 -4.56640625 2.3046875 C-3.04651888 1.53202025 -1.52501076 0.76250538 0 0 Z " fill="#1F2F28" transform="translate(116,338)"/>
<path d="M0 0 C0.66 0.33 1.32 0.66 2 1 C1.67 2.65 1.34 4.3 1 6 C0.21625 6.103125 -0.5675 6.20625 -1.375 6.3125 C-4.33045181 6.77595022 -4.33045181 6.77595022 -6 10 C-8.125 10.6875 -8.125 10.6875 -10 11 C-9.34 10.67 -8.68 10.34 -8 10 C-8.2475 8.9171875 -8.2475 8.9171875 -8.5 7.8125 C-8 5 -8 5 -6.2890625 3.51953125 C-4.22096995 2.18684345 -2.2684677 0.95658277 0 0 Z " fill="#A2B0A8" transform="translate(171,162)"/>
<path d="M0 0 C0.66 0 1.32 0 2 0 C2 0.66 2 1.32 2 2 C2.99 2.33 3.98 2.66 5 3 C0.33195882 6.62011357 -3.2392897 8.70677932 -9 10 C-8.67 9.34 -8.34 8.68 -8 8 C-7.34 8 -6.68 8 -6 8 C-5.34 6.35 -4.68 4.7 -4 3 C-2.68 3 -1.36 3 0 3 C0 2.01 0 1.02 0 0 Z " fill="#22322D" transform="translate(168,71)"/>
<path d="M0 0 C1.98 0 3.96 0 6 0 C6 0.66 6 1.32 6 2 C4.02 2.99 2.04 3.98 0 5 C0.33 5.66 0.66 6.32 1 7 C-2.28976808 8.09658936 -3.71303767 7.79953138 -7 7 C-6.34 6.67 -5.68 6.34 -5 6 C-5 5.34 -5 4.68 -5 4 C-4.34 4 -3.68 4 -3 4 C-3 3.34 -3 2.68 -3 2 C-2.01 2 -1.02 2 0 2 C0 1.34 0 0.68 0 0 Z " fill="#3A4B46" transform="translate(216,44)"/>
<path d="M0 0 C0.66 0.33 1.32 0.66 2 1 C0.88222229 3.31625061 -0.24374092 5.62784605 -1.375 7.9375 C-1.85066406 8.9265332 -1.85066406 8.9265332 -2.3359375 9.93554688 C-4.7734375 14.88671875 -4.7734375 14.88671875 -7 16 C-6.57835981 14.01739401 -6.13721222 12.03892755 -5.6875 10.0625 C-5.44386719 8.96035156 -5.20023437 7.85820312 -4.94921875 6.72265625 C-4.47935547 5.37494141 -4.47935547 5.37494141 -4 4 C-3.01 3.67 -2.02 3.34 -1 3 C-0.67 2.01 -0.34 1.02 0 0 Z " fill="#B6C5BE" transform="translate(300,295)"/>
<path d="M0 0 C-0.33 2.31 -0.66 4.62 -1 7 C-3.31 7.33 -5.62 7.66 -8 8 C-7.32253522 3.25774652 -4.9532836 0 0 0 Z " fill="#2B3E37" transform="translate(69,287)"/>
<path d="M0 0 C0.66 0 1.32 0 2 0 C0.49650623 3.66786393 -1.63728792 5.68910393 -4.625 8.25 C-5.44226563 8.95640625 -6.25953125 9.6628125 -7.1015625 10.390625 C-8.04128906 11.18726563 -8.04128906 11.18726563 -9 12 C-9.99 11.67 -10.98 11.34 -12 11 C-10.9375 8.625 -10.9375 8.625 -9 6 C-6.67451993 5.30643577 -4.34119555 4.63850788 -2 4 C-0.50256112 2.01432266 -0.50256112 2.01432266 0 0 Z " fill="#B7C5BD" transform="translate(82,270)"/>
<path d="M0 0 C0.99 0.33 1.98 0.66 3 1 C0.6875 3.5 0.6875 3.5 -2 6 C-2.99 6 -3.98 6 -5 6 C-5.33 6.99 -5.66 7.98 -6 9 C-8.5625 10.1875 -8.5625 10.1875 -11 11 C-9.52934075 7.41477124 -7.59934458 5.55613904 -4.5625 3.1875 C-3.78003906 2.56230469 -2.99757813 1.93710937 -2.19140625 1.29296875 C-1.10666016 0.65294922 -1.10666016 0.65294922 0 0 Z " fill="#BCC9C2" transform="translate(98,291)"/>
<path d="M0 0 C0.99 0.66 1.98 1.32 3 2 C3.66 1.67 4.32 1.34 5 1 C3.44499019 4.81684226 0.96404505 7.19195732 -2 10 C-2.66 9.67 -3.32 9.34 -4 9 C-3.34 8.34 -2.68 7.68 -2 7 C-2.66 6.67 -3.32 6.34 -4 6 C-3.67 5.01 -3.34 4.02 -3 3 C-2.34 3 -1.68 3 -1 3 C-0.67 2.01 -0.34 1.02 0 0 Z " fill="#BDC9C3" transform="translate(283,232)"/>
<path d="M0 0 C0 3 0 3 -1.86328125 4.97265625 C-2.67152344 5.66230469 -3.47976563 6.35195312 -4.3125 7.0625 C-5.11300781 7.75472656 -5.91351563 8.44695312 -6.73828125 9.16015625 C-9 11 -9 11 -12 13 C-12.99 12.67 -13.98 12.34 -15 12 C-13.9275 11.2575 -12.855 10.515 -11.75 9.75 C-9.50179163 8.15581589 -7.64852347 6.64852347 -5.6875 4.6875 C-4.8521875 3.8521875 -4.8521875 3.8521875 -4 3 C-3.34 3 -2.68 3 -2 3 C-2 2.34 -2 1.68 -2 1 C-1.34 0.67 -0.68 0.34 0 0 Z " fill="#BBCAC4" transform="translate(279,155)"/>
<path d="M0 0 C0 4 0 4 -1.5 5.75 C-1.995 6.1625 -2.49 6.575 -3 7 C-2.67 7.66 -2.34 8.32 -2 9 C-3.65 9 -5.3 9 -7 9 C-6.75 5.625 -6.75 5.625 -6 2 C-3.83076342 0.3905664 -2.68076871 0 0 0 Z " fill="#B0BCB5" transform="translate(184,69)"/>
<path d="M0 0 C0.99 0.33 1.98 0.66 3 1 C2.48847632 4.78527521 1.79154158 6.44108688 -1 9 C-1.33 9.99 -1.66 10.98 -2 12 C-2.66 12 -3.32 12 -4 12 C-3.45660208 7.43545749 -2.20536179 4.0271824 0 0 Z " fill="#B7C3BE" transform="translate(73,318)"/>
<path d="M0 0 C0.66 0.33 1.32 0.66 2 1 C2 1.66 2 2.32 2 3 C1.34 3 0.68 3 0 3 C0 3.66 0 4.32 0 5 C-1.8125 6.0625 -1.8125 6.0625 -4 7 C-4.99 6.67 -5.98 6.34 -7 6 C-7 6.66 -7 7.32 -7 8 C-8.32 8.33 -9.64 8.66 -11 9 C-7.86394624 4.48408258 -4.8731652 2.3463388 0 0 Z M-6 7 C-4 8 -4 8 -4 8 Z " fill="#26362E" transform="translate(266,254)"/>
<path d="M0 0 C-0.33 0.99 -0.66 1.98 -1 3 C-2.98723268 3.70381157 -4.98777953 4.3711811 -7 5 C-7.33 5.66 -7.66 6.32 -8 7 C-11.0625 7.625 -11.0625 7.625 -14 8 C-13 5 -13 5 -10.8203125 3.61328125 C-9.93085938 3.18402344 -9.04140625 2.75476563 -8.125 2.3125 C-7.24070313 1.87550781 -6.35640625 1.43851563 -5.4453125 0.98828125 C-3 0 -3 0 0 0 Z " fill="#24332D" transform="translate(151,234)"/>
<path d="M0 0 C0.99 0 1.98 0 3 0 C3.61538462 7.26153846 3.61538462 7.26153846 0.5 11 C-0.325 11.66 -1.15 12.32 -2 13 C-1.34 11.02 -0.68 9.04 0 7 C-0.66 6.67 -1.32 6.34 -2 6 C-1.49396008 3.83125748 -1.00016187 2.00032373 0 0 Z " fill="#293A35" transform="translate(76,128)"/>
<path d="M0 0 C0.33 0.99 0.66 1.98 1 3 C0.175 3.2475 -0.65 3.495 -1.5 3.75 C-4.94740756 4.98121699 -8.04082704 6.48291978 -11.265625 8.1953125 C-13 9 -13 9 -15 9 C-15 8.34 -15 7.68 -15 7 C-12.87767021 5.82823482 -10.75242209 4.66245215 -8.625 3.5 C-7.72007812 2.99919922 -7.72007812 2.99919922 -6.796875 2.48828125 C-2.2265625 0 -2.2265625 0 0 0 Z " fill="#B4C2BA" transform="translate(217,51)"/>
<path d="M0 0 C2.97 0.495 2.97 0.495 6 1 C2.64416485 4.915141 -1.28066362 7.0795774 -6 9 C-6.66 9 -7.32 9 -8 9 C-8 8.01 -8 7.02 -8 6 C-5.09399739 4.74335022 -3.20395416 4 0 4 C0 2.68 0 1.36 0 0 Z " fill="#25352E" transform="translate(135,350)"/>
<path d="M0 0 C0 0.66 0 1.32 0 2 C-1.78614318 3.03046722 -3.57910018 4.04913236 -5.375 5.0625 C-6.87160156 5.91521484 -6.87160156 5.91521484 -8.3984375 6.78515625 C-9.25695312 7.18605469 -10.11546875 7.58695312 -11 8 C-11.66 7.67 -12.32 7.34 -13 7 C-9.10548524 1.71458711 -6.6563694 -0.3697983 0 0 Z " fill="#BFCCC7" transform="translate(235,271)"/>
<path d="M0 0 C0.99 0.33 1.98 0.66 3 1 C3 2.32 3 3.64 3 5 C0.09399739 6.25664978 -1.79604584 7 -5 7 C-4.6189482 4.23737447 -4.16402868 3.15856106 -2.125 1.1875 C-1.42375 0.795625 -0.7225 0.40375 0 0 Z " fill="#27362F" transform="translate(81,188)"/>
<path d="M0 0 C-1.41468311 0.96125903 -2.8318364 1.91888325 -4.25 2.875 C-5.03890625 3.40867188 -5.8278125 3.94234375 -6.640625 4.4921875 C-10.74333925 7.11412078 -10.74333925 7.11412078 -13 8 C-13.99 7.67 -14.98 7.34 -16 7 C-14.60823368 6.03576974 -13.2113777 5.07888398 -11.8125 4.125 C-11.03519531 3.59132812 -10.25789062 3.05765625 -9.45703125 2.5078125 C-2.95931478 -1.47965739 -2.95931478 -1.47965739 0 0 Z " fill="#20302C" transform="translate(143,178)"/>
<path d="M0 0 C0.33 0.66 0.66 1.32 1 2 C-2.38772897 6.69159716 -5.78185183 11.0299782 -10 15 C-10.66 14.67 -11.32 14.34 -12 14 C-11.25 12.0625 -11.25 12.0625 -10 10 C-7.875 9.25 -7.875 9.25 -6 9 C-6.33 8.01 -6.66 7.02 -7 6 C-5.68 6 -4.36 6 -3 6 C-2.690625 5.195625 -2.38125 4.39125 -2.0625 3.5625 C-1 1 -1 1 0 0 Z " fill="#283831" transform="translate(305,161)"/>
<path d="M0 0 C0 0.99 0 1.98 0 3 C-1.76371818 4.03307771 -3.53625033 5.05112049 -5.3125 6.0625 C-6.79169922 6.91521484 -6.79169922 6.91521484 -8.30078125 7.78515625 C-11 9 -11 9 -14 8 C-11.69 6.68 -9.38 5.36 -7 4 C-7 3.01 -7 2.02 -7 1 C-3.535 0.505 -3.535 0.505 0 0 Z " fill="#1B2B23" transform="translate(227,129)"/>
<path d="M0 0 C-0.99 0.495 -0.99 0.495 -2 1 C-3.13350534 3.01669827 -3.13350534 3.01669827 -4 5 C-4 4.34 -4 3.68 -4 3 C-5.32 3.33 -6.64 3.66 -8 4 C-8 4.66 -8 5.32 -8 6 C-10.31 6.66 -12.62 7.32 -15 8 C-13.69432208 4.08296623 -12.19905398 3.68242813 -8.625 1.75 C-7.64789063 1.20859375 -6.67078125 0.6671875 -5.6640625 0.109375 C-3 -1 -3 -1 0 0 Z " fill="#25352E" transform="translate(245,96)"/>
<path d="M0 0 C2.0625 0.4375 2.0625 0.4375 4 1 C4 1.99 4 2.98 4 4 C4.66 4.33 5.32 4.66 6 5 C5 6 5 6 2.05859375 6.09765625 C0.26615234 6.08025391 0.26615234 6.08025391 -1.5625 6.0625 C-3.35880859 6.04896484 -3.35880859 6.04896484 -5.19140625 6.03515625 C-6.11824219 6.02355469 -7.04507813 6.01195312 -8 6 C-6 4 -6 4 -4.0546875 3.8046875 C-2.03645833 3.86979167 -0.01822917 3.93489583 2 4 C1.01 3.01 0.02 2.02 -1 1 C-0.67 0.67 -0.34 0.34 0 0 Z " fill="#7C8B89" transform="translate(214,445)"/>
<path d="M0 0 C-0.39803561 2.88575819 -0.79009069 3.82189513 -3.0625 5.75 C-3.701875 6.1625 -4.34125 6.575 -5 7 C-5 6.34 -5 5.68 -5 5 C-5.66 5 -6.32 5 -7 5 C-6.67 3.35 -6.34 1.7 -6 0 C-3 -1 -3 -1 0 0 Z " fill="#253632" transform="translate(71,372)"/>
<path d="M0 0 C0 0.66 0 1.32 0 2 C-1.76371818 3.03307771 -3.53625033 4.05112049 -5.3125 5.0625 C-6.79169922 5.91521484 -6.79169922 5.91521484 -8.30078125 6.78515625 C-11 8 -11 8 -14 7 C-14 5.68 -14 4.36 -14 3 C-12.948125 3.061875 -11.89625 3.12375 -10.8125 3.1875 C-6.49585262 2.97520587 -3.91779798 0 0 0 Z " fill="#B6C2BC" transform="translate(210,285)"/>
<path d="M0 0 C0.33 0.99 0.66 1.98 1 3 C-0.88918097 6.0823479 -3.40885457 8.49820441 -6 11 C-6 10.34 -6 9.68 -6 9 C-6.66 9 -7.32 9 -8 9 C-6.4169423 4.7257442 -3.49431596 2.73468206 0 0 Z " fill="#B3C1B9" transform="translate(95,119)"/>
<path d="M0 0 C0.66 1.32 1.32 2.64 2 4 C-3.75 8 -3.75 8 -6 8 C-6.66 6.68 -7.32 5.36 -8 4 C-6.68 3.01 -5.36 2.02 -4 1 C-3.34 1.66 -2.68 2.32 -2 3 C-2.66 3 -3.32 3 -4 3 C-4 3.66 -4 4.32 -4 5 C-0.75150023 3.27773504 -0.75150023 3.27773504 0 0 Z " fill="#2D403B" transform="translate(182,64)"/>
<path d="M0 0 C0.99 0.33 1.98 0.66 3 1 C2.01 1.495 2.01 1.495 1 2 C1 2.66 1 3.32 1 4 C1.66 4.33 2.32 4.66 3 5 C-3.75 9 -3.75 9 -6 9 C-5.70381606 5.44579276 -5.19662957 4.19662957 -2.625 1.625 C-1.325625 0.820625 -1.325625 0.820625 0 0 Z " fill="#42534E" transform="translate(191,59)"/>
<path d="M0 0 C-0.33 0.99 -0.66 1.98 -1 3 C-2.32303717 3.3721042 -3.65737935 3.70630173 -5 4 C-5.33 4.66 -5.66 5.32 -6 6 C-8.9375 7.6875 -8.9375 7.6875 -12 9 C-12.66 8.67 -13.32 8.34 -14 8 C-4.7027027 0 -4.7027027 0 0 0 Z " fill="#263630" transform="translate(88,356)"/>
<path d="M0 0 C0.99 0.99 1.98 1.98 3 3 C3.99 2.01 4.98 1.02 6 0 C6.99 0.33 7.98 0.66 9 1 C7.6905332 2.33631236 6.37734515 3.66897925 5.0625 5 C4.33160156 5.7425 3.60070313 6.485 2.84765625 7.25 C1 9 1 9 0 9 C0 6.03 0 3.06 0 0 Z " fill="#B1C3BA" transform="translate(59,285)"/>
<path d="M0 0 C0.33 0.66 0.66 1.32 1 2 C3.01669827 3.13350534 3.01669827 3.13350534 5 4 C4.8125 5.875 4.8125 5.875 4 8 C1.4375 9.25 1.4375 9.25 -1 10 C-0.67 6.7 -0.34 3.4 0 0 Z " fill="#3E4F4B" transform="translate(307,187)"/>
<path d="M0 0 C-1.98 0.99 -1.98 0.99 -4 2 C-3.34 2.66 -2.68 3.32 -2 4 C-3.4562672 4.36256858 -4.91511185 4.71479793 -6.375 5.0625 C-7.59316406 5.35833984 -7.59316406 5.35833984 -8.8359375 5.66015625 C-11 6 -11 6 -13 5 C-4.9 -1.75 -4.9 -1.75 0 0 Z " fill="#BECCC7" transform="translate(154,88)"/>
<path d="M0 0 C0.66 0 1.32 0 2 0 C1.34 3.3 0.68 6.6 0 10 C-0.66 10 -1.32 10 -2 10 C-2.33 11.98 -2.66 13.96 -3 16 C-4.1577506 12.52674819 -4.06866652 9.63932552 -4 6 C-3.01 6 -2.02 6 -1 6 C-0.67 4.02 -0.34 2.04 0 0 Z " fill="#25352F" transform="translate(67,325)"/>
<path d="M0 0 C0.556875 0.226875 1.11375 0.45375 1.6875 0.6875 C-0.46594283 3.08993465 -2.28124765 4.28994944 -5.3125 5.375 C-5.993125 5.62636719 -6.67375 5.87773437 -7.375 6.13671875 C-9.3125 6.6875 -9.3125 6.6875 -12.3125 6.6875 C-3.64663462 -0.49278846 -3.64663462 -0.49278846 0 0 Z " fill="#C1CFC8" transform="translate(247.3125,294.3125)"/>
<path d="M0 0 C0.53625 0.2475 1.0725 0.495 1.625 0.75 C1.625 1.41 1.625 2.07 1.625 2.75 C-0.025 3.08 -1.675 3.41 -3.375 3.75 C-3.375 4.41 -3.375 5.07 -3.375 5.75 C-4.695 6.08 -6.015 6.41 -7.375 6.75 C-7.705 5.76 -8.035 4.77 -8.375 3.75 C-2.95961538 -0.31153846 -2.95961538 -0.31153846 0 0 Z " fill="#3A4B48" transform="translate(193.375,384.25)"/>
<path d="M0 0 C0.33 0 0.66 0 1 0 C1.33 4.62 1.66 9.24 2 14 C1.01 13.67 0.02 13.34 -1 13 C-1 11.02 -1 9.04 -1 7 C-1.66 7 -2.32 7 -3 7 C-2.1654738 4.49642139 -1.20628008 2.33214148 0 0 Z " fill="#3A4B45" transform="translate(58,263)"/>
<path d="M0 0 C0 0.66 0 1.32 0 2 C-1.98 2.66 -3.96 3.32 -6 4 C-6 4.66 -6 5.32 -6 6 C-7.98 6.66 -9.96 7.32 -12 8 C-12 7.01 -12 6.02 -12 5 C-10.56705502 4.15885829 -9.12845595 3.32734313 -7.6875 2.5 C-6.88699219 2.0359375 -6.08648437 1.571875 -5.26171875 1.09375 C-3 0 -3 0 0 0 Z " fill="#1E2F27" transform="translate(210,201)"/>
<path d="M0 0 C0.33 0.99 0.66 1.98 1 3 C-0.76371818 4.03307771 -2.53625033 5.05112049 -4.3125 6.0625 C-5.79169922 6.91521484 -5.79169922 6.91521484 -7.30078125 7.78515625 C-10 9 -10 9 -13 8 C-12.195625 7.731875 -11.39125 7.46375 -10.5625 7.1875 C-9.716875 6.795625 -8.87125 6.40375 -8 6 C-7.67 5.01 -7.34 4.02 -7 3 C-4 1.875 -4 1.875 -1 1 C-0.67 0.67 -0.34 0.34 0 0 Z " fill="#BBC8C2" transform="translate(224,189)"/>
<path d="M0 0 C0.66 0.33 1.32 0.66 2 1 C1.67 1.66 1.34 2.32 1 3 C2.32 3.33 3.64 3.66 5 4 C1.48812804 6.40814077 -0.72656908 7.36629408 -5 7 C-3.70700306 4.11562221 -2.34058637 2.12780579 0 0 Z " fill="#A8B6AD" transform="translate(159,136)"/>
<path d="M0 0 C-1.55666955 0.9884096 -3.12062426 1.96535082 -4.6875 2.9375 C-5.55761719 3.48277344 -6.42773438 4.02804688 -7.32421875 4.58984375 C-9.94624689 5.97167172 -12.08310075 6.58480173 -15 7 C-13.1875 5 -13.1875 5 -11 3 C-10.01 3 -9.02 3 -8 3 C-8 2.34 -8 1.68 -8 1 C-2.25 -1.125 -2.25 -1.125 0 0 Z " fill="#BFCDC6" transform="translate(260,85)"/>
<path d="M0 0 C0.33 0.99 0.66 1.98 1 3 C-0.45287661 4.33927721 -1.91247259 5.67126847 -3.375 7 C-4.59316406 8.11375 -4.59316406 8.11375 -5.8359375 9.25 C-8 11 -8 11 -10 11 C-9.67 10.01 -9.34 9.02 -9 8 C-8.34 8 -7.68 8 -7 8 C-7 7.34 -7 6.68 -7 6 C-6.34 6 -5.68 6 -5 6 C-4.67 5.01 -4.34 4.02 -4 3 C-3.01 2.67 -2.02 2.34 -1 2 C-0.67 1.34 -0.34 0.68 0 0 Z " fill="#3A4C49" transform="translate(300,79)"/>
<path d="M0 0 C-0.33 0.66 -0.66 1.32 -1 2 C-2.32 1.67 -3.64 1.34 -5 1 C-5 1.66 -5 2.32 -5 3 C-7.64 3.66 -10.28 4.32 -13 5 C-13.33 4.01 -13.66 3.02 -14 2 C-10.97265625 1.26757812 -10.97265625 1.26757812 -7.9453125 0.53515625 C-2.87011173 -0.86103352 -2.87011173 -0.86103352 0 0 Z " fill="#A4B1AA" transform="translate(212,58)"/>
<path d="M0 0 C0.99 0.33 1.98 0.66 3 1 C1.37982158 2.33918806 -0.24629343 3.6711969 -1.875 5 C-3.23238281 6.11375 -3.23238281 6.11375 -4.6171875 7.25 C-7 9 -7 9 -9 9 C-8.67 7.68 -8.34 6.36 -8 5 C-7.01 5 -6.02 5 -5 5 C-5.33 4.01 -5.66 3.02 -6 2 C-4.7934375 1.7834375 -4.7934375 1.7834375 -3.5625 1.5625 C-1.07896294 1.25864751 -1.07896294 1.25864751 0 0 Z " fill="#BCC9C4" transform="translate(78,358)"/>
<path d="M0 0 C0.33 0 0.66 0 1 0 C1 3.3 1 6.6 1 10 C1.66 10 2.32 10 3 10 C2.67 12.31 2.34 14.62 2 17 C1.67 16.34 1.34 15.68 1 15 C0.34 15 -0.32 15 -1 15 C-1.18451025 4.44191344 -1.18451025 4.44191344 0 0 Z " fill="#9DABA4" transform="translate(61,173)"/>
<path d="M0 0 C0.66 0.33 1.32 0.66 2 1 C0.44499019 4.81684226 -2.03595495 7.19195732 -5 10 C-5.66 9.67 -6.32 9.34 -7 9 C-6.34 8.34 -5.68 7.68 -5 7 C-5 6.01 -5 5.02 -5 4 C-2.5 1.8125 -2.5 1.8125 0 0 Z " fill="#A2B1A7" transform="translate(289,93)"/>
<path d="M0 0 C0.515625 0.2475 1.03125 0.495 1.5625 0.75 C1.5625 2.41666667 1.5625 4.08333333 1.5625 5.75 C0.9025 5.09 0.2425 4.43 -0.4375 3.75 C-2.33417109 4.03552357 -2.33417109 4.03552357 -4.4375 4.75 C-6.10269519 5.09060811 -7.76907466 5.42558396 -9.4375 5.75 C-9.4375 5.09 -9.4375 4.43 -9.4375 3.75 C-3.0375 -0.31153846 -3.0375 -0.31153846 0 0 Z " fill="#1F2E28" transform="translate(175.4375,392.25)"/>
<path d="M0 0 C-0.99 0.66 -1.98 1.32 -3 2 C-3.72382467 4.05925139 -3.72382467 4.05925139 -4 6 C-4.763125 5.835 -5.52625 5.67 -6.3125 5.5 C-9.03596236 4.90854604 -9.03596236 4.90854604 -12 5 C-7.90746174 1.10234452 -5.90669543 -0.70317803 0 0 Z " fill="#293933" transform="translate(264,345)"/>
<path d="M0 0 C0 0.66 0 1.32 0 2 C-2.1171875 3.5078125 -2.1171875 3.5078125 -4.875 5.125 C-5.77992187 5.66382813 -6.68484375 6.20265625 -7.6171875 6.7578125 C-10 8 -10 8 -12 8 C-12 7.34 -12 6.68 -12 6 C-11.34 6 -10.68 6 -10 6 C-9.67 5.01 -9.34 4.02 -9 3 C-2.88888889 0 -2.88888889 0 0 0 Z " fill="#BFCCC6" transform="translate(117,250)"/>
<path d="M0 0 C1.2720853 3.8162559 0.47128403 5.35983836 -0.8125 9.125 C-1.16957031 10.20007813 -1.52664062 11.27515625 -1.89453125 12.3828125 C-3 15 -3 15 -5 16 C-4.70887831 9.58076669 -3.54784971 5.37899794 0 0 Z " fill="#14231C" transform="translate(67,238)"/>
<path d="M0 0 C-0.33 0.99 -0.66 1.98 -1 3 C-2.32303717 3.3721042 -3.65737935 3.70630173 -5 4 C-5.33 4.66 -5.66 5.32 -6 6 C-7.32 6 -8.64 6 -10 6 C-9 3 -9 3 -6.6875 1.3125 C-4 0 -4 0 0 0 Z " fill="#B9C7BF" transform="translate(251,206)"/>
<path d="M0 0 C2.97 0.495 2.97 0.495 6 1 C4.515 2.485 4.515 2.485 3 4 C3.33 4.66 3.66 5.32 4 6 C3.01 6.33 2.02 6.66 1 7 C-1.1875 5.5625 -1.1875 5.5625 -3 4 C-2.01 2.68 -1.02 1.36 0 0 Z " fill="#A8B4AC" transform="translate(209,193)"/>
<path d="M0 0 C0 0.66 0 1.32 0 2 C-1.78710586 2.86366822 -3.5798465 3.71568594 -5.375 4.5625 C-6.37273437 5.03816406 -7.37046875 5.51382813 -8.3984375 6.00390625 C-9.25695312 6.33261719 -10.11546875 6.66132812 -11 7 C-11.66 6.67 -12.32 6.34 -13 6 C-11.59138651 4.98868775 -10.17274547 3.99133233 -8.75 3 C-7.56664062 2.1646875 -7.56664062 2.1646875 -6.359375 1.3125 C-4 0 -4 0 0 0 Z " fill="#22312B" transform="translate(207,117)"/>
<path d="M0 0 C1.66666667 0 3.33333333 0 5 0 C5 0.66 5 1.32 5 2 C0.05 4.475 0.05 4.475 -5 7 C-5.33 5.68 -5.66 4.36 -6 3 C-5.195625 2.690625 -4.39125 2.38125 -3.5625 2.0625 C-1.10919595 1.23664655 -1.10919595 1.23664655 0 0 Z " fill="#293830" transform="translate(215,307)"/>
<path d="M0 0 C0 0.66 0 1.32 0 2 C-0.66 2 -1.32 2 -2 2 C-1.67 3.32 -1.34 4.64 -1 6 C-2.32 6.99 -3.64 7.98 -5 9 C-5.66 8.67 -6.32 8.34 -7 8 C-4.18918919 0 -4.18918919 0 0 0 Z " fill="#2C3D36" transform="translate(78,278)"/>
<path d="M0 0 C0.66 0.33 1.32 0.66 2 1 C-6.261959 8.66742597 -6.261959 8.66742597 -11 10 C-7.50640535 6.40365256 -3.88901869 3.16548033 0 0 Z " fill="#BDCAC4" transform="translate(277,243)"/>
<path d="M0 0 C1.65 0 3.3 0 5 0 C5.66 1.32 6.32 2.64 7 4 C4.23735711 4.59732819 1.83967231 5 -1 5 C-0.67 3.35 -0.34 1.7 0 0 Z " fill="#41544E" transform="translate(96,111)"/>
<path d="M0 0 C0.66 0 1.32 0 2 0 C1.67 5.28 1.34 10.56 1 16 C0.67 16 0.34 16 0 16 C-0.13277344 15.21753906 -0.26554687 14.43507813 -0.40234375 13.62890625 C-0.57894531 12.61699219 -0.75554687 11.60507813 -0.9375 10.5625 C-1.11152344 9.55316406 -1.28554688 8.54382813 -1.46484375 7.50390625 C-1.74751097 5.0712562 -1.74751097 5.0712562 -3 4 C-1.625 2 -1.625 2 0 0 Z " fill="#91A19A" transform="translate(307,76)"/>
<path d="M0 0 C2.97 0.495 2.97 0.495 6 1 C6 1.66 6 2.32 6 3 C0.58461538 6.07692308 0.58461538 6.07692308 -2.375 5.6875 C-2.91125 5.460625 -3.4475 5.23375 -4 5 C-3.34 5 -2.68 5 -2 5 C-2 4.34 -2 3.68 -2 3 C-1.01 3 -0.02 3 1 3 C0.67 2.01 0.34 1.02 0 0 Z " fill="#B1C3B9" transform="translate(268,75)"/>
<path d="M0 0 C-0.3125 1.9375 -0.3125 1.9375 -1 4 C-4 5 -4 5 -7 4 C-6.625 2.0625 -6.625 2.0625 -6 0 C-3.50907189 -1.24546405 -2.58919267 -0.7767578 0 0 Z " fill="#A3B3A9" transform="translate(224,49)"/>
<path d="M0 0 C0.33 0.99 0.66 1.98 1 3 C0.01 4.485 0.01 4.485 -1 6 C-3.31 5.67 -5.62 5.34 -8 5 C-3.22727273 0 -3.22727273 0 0 0 Z " fill="#3E4F4B" transform="translate(231,275)"/>
<path d="M0 0 C0.33 0.99 0.66 1.98 1 3 C1.66 3.33 2.32 3.66 3 4 C-2.75 8 -2.75 8 -5 8 C-5 7.01 -5 6.02 -5 5 C-4.34 5 -3.68 5 -3 5 C-3 4.34 -3 3.68 -3 3 C-2.34 3 -1.68 3 -1 3 C-0.67 2.01 -0.34 1.02 0 0 Z " fill="#202F28" transform="translate(227,212)"/>
<path d="M0 0 C0.66 0.66 1.32 1.32 2 2 C1.625 4.125 1.625 4.125 1 6 C-0.65 6.33 -2.3 6.66 -4 7 C-3.34 6.67 -2.68 6.34 -2 6 C-2.99 5.34 -3.98 4.68 -5 4 C-3.35 2.68 -1.7 1.36 0 0 Z " fill="#3C4B46" transform="translate(75,193)"/>
<path d="M0 0 C0.28875 0.639375 0.5775 1.27875 0.875 1.9375 C1.82823451 4.15206079 1.82823451 4.15206079 4 5 C4 6.32 4 7.64 4 9 C4.66 9.33 5.32 9.66 6 10 C5.01 10.495 5.01 10.495 4 11 C3.01 10.67 2.02 10.34 1 10 C1 8.68 1 7.36 1 6 C0.34 6 -0.32 6 -1 6 C-0.67 4.02 -0.34 2.04 0 0 Z " fill="#A5B3AB" transform="translate(63,166)"/>
<path d="M0 0 C-0.33 1.65 -0.66 3.3 -1 5 C-3.31 5.33 -5.62 5.66 -8 6 C-8 5.34 -8 4.68 -8 4 C-2.58823529 0 -2.58823529 0 0 0 Z " fill="#2A3B36" transform="translate(272,165)"/>
<path d="M0 0 C-7.29533679 4.97409326 -7.29533679 4.97409326 -10 6 C-10.99 5.67 -11.98 5.34 -13 5 C-12.34 4.34 -11.68 3.68 -11 3 C-10.01 3 -9.02 3 -8 3 C-8 2.34 -8 1.68 -8 1 C-3.375 -1.125 -3.375 -1.125 0 0 Z " fill="#192720" transform="translate(132,97)"/>
<path d="M0 0 C-1.41328129 0.81837442 -2.83078346 1.62946219 -4.25 2.4375 C-5.43335938 3.11619141 -5.43335938 3.11619141 -6.640625 3.80859375 C-8.78833468 4.89311602 -10.65205061 5.53148716 -13 6 C-13 5.34 -13 4.68 -13 4 C-11.59248779 3.13083113 -10.1735479 2.28014851 -8.75 1.4375 C-7.96109375 0.96183594 -7.1721875 0.48617188 -6.359375 -0.00390625 C-3.69155375 -1.13022151 -2.65498232 -1.0169313 0 0 Z " fill="#C4D1CA" transform="translate(153,348)"/>
<path d="M0 0 C2.19578473 2.67312924 3.19649201 4.67118118 4 8 C4.66 8.33 5.32 8.66 6 9 C4.68 9.99 3.36 10.98 2 12 C-0.60018816 8.09971775 -0.15085514 4.52565431 0 0 Z " fill="#9EACA3" transform="translate(59,277)"/>
<path d="M0 0 C0.99 0 1.98 0 3 0 C3.33 0.99 3.66 1.98 4 3 C3.07421875 4.82421875 3.07421875 4.82421875 1.6875 6.6875 C1.23761719 7.31011719 0.78773438 7.93273437 0.32421875 8.57421875 C-0.11277344 9.04472656 -0.54976562 9.51523437 -1 10 C-1.66 10 -2.32 10 -3 10 C-2.67 8.68 -2.34 7.36 -2 6 C-1.34 6 -0.68 6 0 6 C0 4.02 0 2.04 0 0 Z " fill="#2A3B37" transform="translate(242,269)"/>
<path d="M0 0 C1.1446875 0.3403125 1.1446875 0.3403125 2.3125 0.6875 C-2.3125 5.5625 -2.3125 5.5625 -5.6875 6.6875 C-5.6875 2.6875 -5.6875 2.6875 -4.5 0.875 C-2.6875 -0.3125 -2.6875 -0.3125 0 0 Z " fill="#A3AFA7" transform="translate(90.6875,264.3125)"/>
<path d="M0 0 C0 3 0 3 -2.5 5.6875 C-3.325 6.450625 -4.15 7.21375 -5 8 C-5.99 7.67 -6.98 7.34 -8 7 C-7.01 6.67 -6.02 6.34 -5 6 C-5.33 4.68 -5.66 3.36 -6 2 C-4.7934375 1.7834375 -4.7934375 1.7834375 -3.5625 1.5625 C-1.07896294 1.25864751 -1.07896294 1.25864751 0 0 Z " fill="#253732" transform="translate(296,258)"/>
<path d="M0 0 C1.2065625 0.0309375 1.2065625 0.0309375 2.4375 0.0625 C2.1075 1.0525 1.7775 2.0425 1.4375 3.0625 C0.1175 3.0625 -1.2025 3.0625 -2.5625 3.0625 C-3.2225 4.3825 -3.8825 5.7025 -4.5625 7.0625 C-5.2225 6.7325 -5.8825 6.4025 -6.5625 6.0625 C-3.03077411 0.07392132 -3.03077411 0.07392132 0 0 Z " fill="#B6C6BD" transform="translate(300.5625,257.9375)"/>
<path d="M0 0 C1.98 0.66 3.96 1.32 6 2 C5.67 3.32 5.34 4.64 5 6 C3.02 6.33 1.04 6.66 -1 7 C-0.67 6.34 -0.34 5.68 0 5 C0.66 5 1.32 5 2 5 C1.34 3.35 0.68 1.7 0 0 Z " fill="#2E3D39" transform="translate(57,247)"/>
<path d="M0 0 C0.66 0.33 1.32 0.66 2 1 C0.75627811 1.98712878 -0.49527218 2.96439905 -1.75 3.9375 C-2.44609375 4.48277344 -3.1421875 5.02804688 -3.859375 5.58984375 C-5.96092128 6.97425654 -7.54321799 7.56286987 -10 8 C-10 7.34 -10 6.68 -10 6 C-9.030625 5.54625 -8.06125 5.0925 -7.0625 4.625 C-3.92920418 3.34213779 -3.92920418 3.34213779 -3 1 C-2.01 0.67 -1.02 0.34 0 0 Z " fill="#22312B" transform="translate(276,187)"/>
<path d="M0 0 C0 2 0 2 -1.609375 3.65625 C-2.31578125 4.2646875 -3.0221875 4.873125 -3.75 5.5 C-4.44609375 6.1084375 -5.1421875 6.716875 -5.859375 7.34375 C-7.84460792 8.87976963 -9.71872045 9.9723966 -12 11 C-11.360625 10.236875 -10.72125 9.47375 -10.0625 8.6875 C-7.85767219 6.11753287 -7.85767219 6.11753287 -7 3 C-2.66666667 0 -2.66666667 0 0 0 Z " fill="#1A2922" transform="translate(92,121)"/>
<path d="M0 0 C-2.23775234 3.3566285 -2.93320048 3.57996014 -6.625 4.6875 C-7.44226563 4.93886719 -8.25953125 5.19023438 -9.1015625 5.44921875 C-9.72804688 5.63097656 -10.35453125 5.81273438 -11 6 C-9.64449874 2.8674301 -9.10602195 2.0654178 -6.0625 0.1875 C-3 -1 -3 -1 0 0 Z " fill="#B6C5BE" transform="translate(270,110)"/>
<path d="M0 0 C0 0.66 0 1.32 0 2 C-3 4 -3 4 -6 4 C-6 4.66 -6 5.32 -6 6 C-7.65 6 -9.3 6 -11 6 C-7.57865372 2.33427184 -5.14341528 0 0 0 Z " fill="#B4C1BB" transform="translate(163,81)"/>
<path d="M0 0 C-1.62170379 1.00533667 -3.24747237 2.00411907 -4.875 3 C-6.23238281 3.8353125 -6.23238281 3.8353125 -7.6171875 4.6875 C-10 6 -10 6 -12 6 C-12 5.34 -12 4.68 -12 4 C-10.56988027 3.13353333 -9.13059381 2.28218171 -7.6875 1.4375 C-6.48673828 0.72400391 -6.48673828 0.72400391 -5.26171875 -0.00390625 C-3 -1 -3 -1 0 0 Z " fill="#C2D1CA" transform="translate(197,64)"/>
<path d="M0 0 C0.53625 0.2475 1.0725 0.495 1.625 0.75 C-1.345 3.225 -1.345 3.225 -4.375 5.75 C-5.695 5.09 -7.015 4.43 -8.375 3.75 C-2.95961538 -0.31153846 -2.95961538 -0.31153846 0 0 Z " fill="#B9C7BE" transform="translate(112.375,369.25)"/>
<path d="M0 0 C0.99 0.33 1.98 0.66 3 1 C2.67 2.32 2.34 3.64 2 5 C0.35 4.67 -1.3 4.34 -3 4 C-2.01 2.68 -1.02 1.36 0 0 Z M5 -1 C5.33 -0.01 5.66 0.98 6 2 C5.01 2.495 5.01 2.495 4 3 C3.67 2.01 3.34 1.02 3 0 C3.66 -0.33 4.32 -0.66 5 -1 Z " fill="#3E4F4C" transform="translate(73,364)"/>
<path d="M0 0 C1.5625 1.8125 1.5625 1.8125 3 4 C2.67 4.99 2.34 5.98 2 7 C1.01 6.67 0.02 6.34 -1 6 C-1 6.66 -1 7.32 -1 8 C-1.66 8 -2.32 8 -3 8 C-3 3.73173127 -2.62386487 3.06117568 0 0 Z " fill="#435550" transform="translate(284,238)"/>
<path d="M0 0 C0.66 0.66 1.32 1.32 2 2 C0.768606 5.69418201 -1.20791354 7.35109746 -4 10 C-3.43454163 6.04179141 -2.19097652 3.3340947 0 0 Z " fill="#293A33" transform="translate(303,209)"/>
<path d="M0 0 C-1.07429598 0.84495189 -2.15989202 1.67554858 -3.25 2.5 C-4.15492188 3.19609375 -4.15492188 3.19609375 -5.078125 3.90625 C-7 5 -7 5 -11 5 C-11 4.34 -11 3.68 -11 3 C-4.03571429 -1.41964286 -4.03571429 -1.41964286 0 0 Z " fill="#283A32" transform="translate(254,178)"/>
<path d="M0 0 C0.66 0 1.32 0 2 0 C1 7.42857143 1 7.42857143 0 11 C-0.66 11 -1.32 11 -2 11 C-2.19622241 6.78121808 -1.80230168 3.82989106 0 0 Z " fill="#20302A" transform="translate(306,109)"/>
<path d="M0 0 C0.66 0.33 1.32 0.66 2 1 C1 4 1 4 -1.9375 5.6875 C-5 7 -5 7 -7 7 C-5.55609075 3.19333016 -3.65047197 1.73397418 0 0 Z " fill="#293B34" transform="translate(276,333)"/>
<path d="M0 0 C-0.66 0 -1.32 0 -2 0 C-2.33 1.32 -2.66 2.64 -3 4 C-6.75 5.125 -6.75 5.125 -9 4 C-8 1 -8 1 -5.625 -0.25 C-3 -1 -3 -1 0 0 Z " fill="#BBC9C2" transform="translate(189,328)"/>
<path d="M0 0 C1.65 0 3.3 0 5 0 C5 0.99 5 1.98 5 3 C4.34 2.67 3.68 2.34 3 2 C2.67 3.98 2.34 5.96 2 8 C1.34 8 0.68 8 0 8 C0 7.34 0 6.68 0 6 C-0.66 5.34 -1.32 4.68 -2 4 C-1.01 4 -0.02 4 1 4 C0.67 2.68 0.34 1.36 0 0 Z " fill="#3A4E48" transform="translate(64,323)"/>
<path d="M0 0 C-3.79692186 2.82561627 -6.18569279 4.56638908 -11 4 C-10.4375 2.0625 -10.4375 2.0625 -9 0 C-2.85365854 -1.42682927 -2.85365854 -1.42682927 0 0 Z " fill="#1F2F2A" transform="translate(221,221)"/>
<path d="M0 0 C0.99 0 1.98 0 3 0 C3 0.66 3 1.32 3 2 C4.32 2.33 5.64 2.66 7 3 C5.75108386 3.48198463 4.50081192 3.96045677 3.25 4.4375 C2.20585937 4.83775391 2.20585937 4.83775391 1.140625 5.24609375 C-0.89059003 5.96146693 -2.9035291 6.51365652 -5 7 C-1.25 3.125 -1.25 3.125 1 2 C0.67 1.34 0.34 0.68 0 0 Z " fill="#3E504C" transform="translate(176,218)"/>
<path d="M0 0 C0.99 0.33 1.98 0.66 3 1 C3 2.32 3 3.64 3 5 C0.69 5.33 -1.62 5.66 -4 6 C-2.84826645 3.53199953 -1.95216435 1.95216435 0 0 Z " fill="#22332F" transform="translate(61,209)"/>
<path d="M0 0 C0.598125 0.20625 1.19625 0.4125 1.8125 0.625 C2.1425 1.945 2.4725 3.265 2.8125 4.625 C0.8325 4.625 -1.1475 4.625 -3.1875 4.625 C-3.1875 3.965 -3.1875 3.305 -3.1875 2.625 C-3.8475 2.295 -4.5075 1.965 -5.1875 1.625 C-2.1875 -0.375 -2.1875 -0.375 0 0 Z " fill="#3A4B45" transform="translate(219.1875,195.375)"/>
<path d="M0 0 C-1.2065625 1.175625 -1.2065625 1.175625 -2.4375 2.375 C-4.98690417 4.71982856 -4.98690417 4.71982856 -6 7 C-6.66 6.67 -7.32 6.34 -8 6 C-8 4.35 -8 2.7 -8 1 C-4.93251126 -0.86240388 -3.40254489 -1.2151946 0 0 Z " fill="#24332E" transform="translate(118,167)"/>
<path d="M0 0 C-0.185625 0.61875 -0.37125 1.2375 -0.5625 1.875 C-1.23686176 4.04160178 -1.23686176 4.04160178 0 6 C-1.32 6.33 -2.64 6.66 -4 7 C-4 5.68 -4 4.36 -4 3 C-4.99 3.33 -5.98 3.66 -7 4 C-7 3.34 -7 2.68 -7 2 C-2.25 0 -2.25 0 0 0 Z " fill="#384C47" transform="translate(237,121)"/>
<path d="M0 0 C0.66 0.99 1.32 1.98 2 3 C1.01 3 0.02 3 -1 3 C-1 3.66 -1 4.32 -1 5 C-2.98 5.33 -4.96 5.66 -7 6 C-7 4 -7 4 -5.75 2.4375 C-3.82307517 0.85466889 -2.43204149 0.4193175 0 0 Z " fill="#394C48" transform="translate(108,105)"/>
<path d="M0 0 C0.33 0.66 0.66 1.32 1 2 C-1.97 2.66 -4.94 3.32 -8 4 C-8 3.01 -8 2.02 -8 1 C-3.375 -1.125 -3.375 -1.125 0 0 Z " fill="#41524D" transform="translate(120,362)"/>
<path d="M0 0 C-3.28804981 2.91227269 -5.59885603 4.49701212 -10 5 C-10 3 -10 3 -8.8125 1.4375 C-6.00916573 -0.78583407 -3.27061105 -1.63530553 0 0 Z " fill="#BAC7C1" transform="translate(221,280)"/>
<path d="M0 0 C1.32 0 2.64 0 4 0 C4 1.32 4 2.64 4 4 C2.35 4.66 0.7 5.32 -1 6 C-1.042721 4.33388095 -1.04063832 2.66617115 -1 1 C-0.67 0.67 -0.34 0.34 0 0 Z " fill="#253630" transform="translate(193,209)"/>
<path d="M0 0 C0.556875 0.226875 1.11375 0.45375 1.6875 0.6875 C-0.9723561 4.12966672 -4.21538286 4.68254674 -8.3125 5.6875 C-7.3125 2.6875 -7.3125 2.6875 -5 0.9375 C-2.3125 -0.3125 -2.3125 -0.3125 0 0 Z " fill="#B9C6BE" transform="translate(190.3125,153.3125)"/>
<path d="M0 0 C0.99 0.33 1.98 0.66 3 1 C3.33 1.99 3.66 2.98 4 4 C2.0625 7.1875 2.0625 7.1875 0 10 C-1.25733598 6.22799206 -1.03366148 3.74702285 0 0 Z " fill="#445652" transform="translate(300,125)"/>
<path d="M0 0 C-0.99 0.33 -1.98 0.66 -3 1 C-3 1.66 -3 2.32 -3 3 C-3.99 3 -4.98 3 -6 3 C-6 3.66 -6 4.32 -6 5 C-7.32 5.33 -8.64 5.66 -10 6 C-8.20404732 1.26521567 -5.07984355 -1.69328118 0 0 Z " fill="#C7D5CE" transform="translate(106,115)"/>
<path d="M0 0 C0.66 0.33 1.32 0.66 2 1 C1.34 2.32 0.68 3.64 0 5 C-2.31 5 -4.62 5 -7 5 C-4.88437775 2.67281553 -2.94982021 1.14186589 0 0 Z " fill="#42514D" transform="translate(229,102)"/>
<path d="M0 0 C-1.45264038 0.8638129 -2.9123163 1.71580454 -4.375 2.5625 C-5.59316406 3.27599609 -5.59316406 3.27599609 -6.8359375 4.00390625 C-7.55007812 4.33261719 -8.26421875 4.66132812 -9 5 C-9.66 4.67 -10.32 4.34 -11 4 C-7.9178096 0.4611888 -4.70112403 -2.35056201 0 0 Z " fill="#C5D2CC" transform="translate(232,101)"/>
<path d="M0 0 C0.99 0 1.98 0 3 0 C2.375 2.8125 2.375 2.8125 1 6 C-2.125 7.875 -2.125 7.875 -5 9 C-4 6 -4 6 -1.9375 4.5 C-1.298125 4.005 -0.65875 3.51 0 3 C0 2.01 0 1.02 0 0 Z " fill="#25352E" transform="translate(280,95)"/>
<path d="M0 0 C0.99 0.66 1.98 1.32 3 2 C2.67 2.66 2.34 3.32 2 4 C1.01 3.67 0.02 3.34 -1 3 C-1.268125 3.61875 -1.53625 4.2375 -1.8125 4.875 C-3 7 -3 7 -6 9 C-4.83857315 4.64464931 -3.92300495 2.35380297 0 0 Z " fill="#1F2F2B" transform="translate(308,72)"/>
<path d="M0 0 C0.66 0 1.32 0 2 0 C2 0.66 2 1.32 2 2 C3.65 1.34 5.3 0.68 7 0 C7 0.66 7 1.32 7 2 C6.01 2.66 5.02 3.32 4 4 C3.01 5.485 3.01 5.485 2 7 C2 6.34 2 5.68 2 5 C1.34 5 0.68 5 0 5 C0 3.35 0 1.7 0 0 Z " fill="#A4B2A8" transform="translate(79,352)"/>
<path d="M0 0 C-2.54605302 2.00047023 -4.9664636 3.82572785 -8 5 C-8.99 4.67 -9.98 4.34 -11 4 C-10.01 3.67 -9.02 3.34 -8 3 C-8 2.34 -8 1.68 -8 1 C-3.375 -1.125 -3.375 -1.125 0 0 Z " fill="#1F2E27" transform="translate(182,329)"/>
<path d="M0 0 C0 0.66 0 1.32 0 2 C-0.66 2 -1.32 2 -2 2 C-2 2.66 -2 3.32 -2 4 C-4.31 4.33 -6.62 4.66 -9 5 C-9 4.34 -9 3.68 -9 3 C-2.25 0 -2.25 0 0 0 Z " fill="#213029" transform="translate(157,317)"/>
<path d="M0 0 C0.99 0.33 1.98 0.66 3 1 C3.6875 3.0625 3.6875 3.0625 4 5 C4.99 5 5.98 5 7 5 C7 5.66 7 6.32 7 7 C4.69 6.34 2.38 5.68 0 5 C0 4.34 0 3.68 0 3 C-0.66 2.34 -1.32 1.68 -2 1 C-1.34 0.67 -0.68 0.34 0 0 Z " fill="#3A4B45" transform="translate(206,288)"/>
<path d="M0 0 C1.32 0 2.64 0 4 0 C4 0.66 4 1.32 4 2 C-1.14209827 6.09030544 -1.14209827 6.09030544 -4.375 5.75 C-4.91125 5.5025 -5.4475 5.255 -6 5 C-5.195625 4.54625 -4.39125 4.0925 -3.5625 3.625 C-0.91143428 2.25274335 -0.91143428 2.25274335 0 0 Z " fill="#1F3029" transform="translate(260,282)"/>
<path d="M0 0 C0.66 0.33 1.32 0.66 2 1 C2 1.99 2 2.98 2 4 C1.34 4 0.68 4 0 4 C-0.33 4.66 -0.66 5.32 -1 6 C-3.0625 6.625 -3.0625 6.625 -5 7 C-5 6.01 -5 5.02 -5 4 C-2.5 1.8125 -2.5 1.8125 0 0 Z " fill="#3F504A" transform="translate(120,249)"/>
<path d="M0 0 C0.66 0.33 1.32 0.66 2 1 C1.67 1.66 1.34 2.32 1 3 C1.66 3.33 2.32 3.66 3 4 C2.01 4.66 1.02 5.32 0 6 C-3 5 -3 5 -5 3 C-2.625 1.4375 -2.625 1.4375 0 0 Z " fill="#455550" transform="translate(167,223)"/>
<path d="M0 0 C0.99 0.33 1.98 0.66 3 1 C3.33 2.65 3.66 4.3 4 6 C2.68 6 1.36 6 0 6 C-1.125 2.25 -1.125 2.25 0 0 Z " fill="#3B4D4A" transform="translate(295,136)"/>
<path d="M0 0 C-1.26239712 0.86658615 -2.53527501 1.71792059 -3.8125 2.5625 C-4.87404297 3.27599609 -4.87404297 3.27599609 -5.95703125 4.00390625 C-8 5 -8 5 -11 4 C-10.34 4 -9.68 4 -9 4 C-9 3.34 -9 2.68 -9 2 C-3.375 -1.125 -3.375 -1.125 0 0 Z " fill="#1A2A24" transform="translate(257,115)"/>
<path d="M0 0 C1.0625 1.875 1.0625 1.875 2 4 C1.67 4.66 1.34 5.32 1 6 C-0.98 5.34 -2.96 4.68 -5 4 C-3.35 2.68 -1.7 1.36 0 0 Z " fill="#384A44" transform="translate(101,346)"/>
<path d="M0 0 C0 0.99 0 1.98 0 3 C-3.465 4.485 -3.465 4.485 -7 6 C-7 4.35 -7 2.7 -7 1 C-3.535 0.505 -3.535 0.505 0 0 Z " fill="#B7C5BF" transform="translate(247,177)"/>
<path d="M0 0 C0.66 0.33 1.32 0.66 2 1 C2 1.66 2 2.32 2 3 C1.01 3.66 0.02 4.32 -1 5 C-1.99 6.485 -1.99 6.485 -3 8 C-3 7.34 -3 6.68 -3 6 C-4.32 5.67 -5.64 5.34 -7 5 C-6.030625 4.54625 -5.06125 4.0925 -4.0625 3.625 C-0.92920418 2.34213779 -0.92920418 2.34213779 0 0 Z " fill="#3E504C" transform="translate(153,167)"/>
<path d="M0 0 C0.625 1.875 0.625 1.875 1 4 C-1.5654594 6.5654594 -3.47686668 6.54046087 -7 7 C-6.34 6.01 -5.68 5.02 -5 4 C-4.34 4 -3.68 4 -3 4 C-3 3.34 -3 2.68 -3 2 C-2.01 1.34 -1.02 0.68 0 0 Z " fill="#A4B3AA" transform="translate(287,144)"/>
<path d="M0 0 C0 0.99 0 1.98 0 3 C-4.95 4.485 -4.95 4.485 -10 6 C-4.30769231 0 -4.30769231 0 0 0 Z " fill="#C0CDC5" transform="translate(140,94)"/>
<path d="M0 0 C0.33 1.32 0.66 2.64 1 4 C-0.8125 5.0625 -0.8125 5.0625 -3 6 C-3.99 5.67 -4.98 5.34 -6 5 C-5.34 5 -4.68 5 -4 5 C-4 3.68 -4 2.36 -4 1 C-2.68 0.67 -1.36 0.34 0 0 Z " fill="#B4C2BA" transform="translate(182,384)"/>
<path d="M0 0 C0.66 0.66 1.32 1.32 2 2 C0.35 3.65 -1.3 5.3 -3 7 C-2.01 7.33 -1.02 7.66 0 8 C-0.99 8.495 -0.99 8.495 -2 9 C-2.99 8.01 -3.98 7.02 -5 6 C-3.35 4.02 -1.7 2.04 0 0 Z " fill="#1C2E28" transform="translate(102,370)"/>
<path d="M0 0 C2.0877193 3.43859649 2.0877193 3.43859649 1.6875 6 C1.3471875 6.99 1.3471875 6.99 1 8 C0.814375 8.7425 0.62875 9.485 0.4375 10.25 C0.293125 10.8275 0.14875 11.405 0 12 C-0.66 12 -1.32 12 -2 12 C-1.44687265 7.97007218 -0.8441938 3.97977076 0 0 Z " fill="#A0AFA7" transform="translate(63,364)"/>
<path d="M0 0 C0 0.66 0 1.32 0 2 C-1.45264038 2.8638129 -2.9123163 3.71580454 -4.375 4.5625 C-5.59316406 5.27599609 -5.59316406 5.27599609 -6.8359375 6.00390625 C-7.55007812 6.33261719 -8.26421875 6.66132813 -9 7 C-9.66 6.67 -10.32 6.34 -11 6 C-9.54550599 4.9944239 -8.08627557 3.99569565 -6.625 3 C-5.40683594 2.1646875 -5.40683594 2.1646875 -4.1640625 1.3125 C-2 0 -2 0 0 0 Z " fill="#17261F" transform="translate(169,335)"/>
<path d="M0 0 C0.66 0.33 1.32 0.66 2 1 C2 1.99 2 2.98 2 4 C0.02 4.99 0.02 4.99 -2 6 C-2 5.01 -2 4.02 -2 3 C-2.66 2.67 -3.32 2.34 -4 2 C-2.125 0.9375 -2.125 0.9375 0 0 Z " fill="#A1B0A7" transform="translate(167,337)"/>
<path d="M0 0 C0 0.66 0 1.32 0 2 C-1.28650706 2.69710731 -2.57940665 3.38242876 -3.875 4.0625 C-4.95394531 4.63677734 -4.95394531 4.63677734 -6.0546875 5.22265625 C-6.69664063 5.47917969 -7.33859375 5.73570312 -8 6 C-8.66 5.67 -9.32 5.34 -10 5 C-6.75728676 1.53365137 -4.90610505 0 0 0 Z " fill="#C4D2CB" transform="translate(130,329)"/>
<path d="M0 0 C0.66 0.33 1.32 0.66 2 1 C-0.83430453 4.2542015 -2.68607774 5.5206753 -7 6 C-6 3 -6 3 -3.0625 1.25 C-2.051875 0.8375 -1.04125 0.425 0 0 Z " fill="#24332C" transform="translate(145,322)"/>
<path d="M0 0 C-1 3 -1 3 -2.875 4.25 C-5 5 -5 5 -8 4 C-7.34 3.67 -6.68 3.34 -6 3 C-6.66 2.34 -7.32 1.68 -8 1 C-5.29120665 -0.35439668 -2.99066732 -0.06501451 0 0 Z " fill="#273731" transform="translate(194,321)"/>
<path d="M0 0 C-4 4 -4 4 -6.625 4.125 C-7.40875 4.08375 -8.1925 4.0425 -9 4 C-9 3.34 -9 2.68 -9 2 C-3.375 -1.125 -3.375 -1.125 0 0 Z " fill="#273631" transform="translate(168,312)"/>
<path d="M0 0 C0.99 0.495 0.99 0.495 2 1 C1.01 1.495 1.01 1.495 0 2 C0 1.34 0 0.68 0 0 Z M0 2 C-2.35953094 4.35953094 -3.77895617 4.49141413 -7 5 C-6.67 4.01 -6.34 3.02 -6 2 C-3.50907189 0.75453595 -2.58919267 1.2232422 0 2 Z " fill="#B7C5C0" transform="translate(121,278)"/>
<path d="M0 0 C2.00720923 0.28674418 4.0085944 0.61866701 6 1 C6 1.66 6 2.32 6 3 C4.329375 3.2165625 4.329375 3.2165625 2.625 3.4375 C-0.82142047 3.78372035 -0.82142047 3.78372035 -3 5 C-1.125 1.125 -1.125 1.125 0 0 Z " fill="#23342E" transform="translate(82,273)"/>
<path d="M0 0 C0 0.66 0 1.32 0 2 C-2.75 4.1875 -2.75 4.1875 -6 6 C-8.203125 5.61328125 -8.203125 5.61328125 -10 5 C-8.71186658 4.16121545 -7.41936744 3.32913217 -6.125 2.5 C-5.40570313 2.0359375 -4.68640625 1.571875 -3.9453125 1.09375 C-2 0 -2 0 0 0 Z " fill="#B7C5BD" transform="translate(284,272)"/>
<path d="M0 0 C-4.95 2.475 -4.95 2.475 -10 5 C-9 2 -9 2 -6.125 0.25 C-3 -1 -3 -1 0 0 Z " fill="#B3C2BB" transform="translate(203,204)"/>
<path d="M0 0 C1.32 0.33 2.64 0.66 4 1 C3.67 1.99 3.34 2.98 3 4 C1.35 4.33 -0.3 4.66 -2 5 C-2.66 3.68 -3.32 2.36 -4 1 C-3.34 1 -2.68 1 -2 1 C-2 1.66 -2 2.32 -2 3 C-1.34 3 -0.68 3 0 3 C0 2.01 0 1.02 0 0 Z " fill="#2C3D37" transform="translate(288,176)"/>
<path d="M0 0 C0.33 0.99 0.66 1.98 1 3 C1.99 3.33 2.98 3.66 4 4 C-1.75 5 -1.75 5 -4 5 C-3 2 -3 2 0 0 Z " fill="#3A4B49" transform="translate(204,139)"/>
<path d="M0 0 C1.32 0 2.64 0 4 0 C4.33 0.99 4.66 1.98 5 3 C4.01 3.66 3.02 4.32 2 5 C1.01 4.67 0.02 4.34 -1 4 C-0.67 2.68 -0.34 1.36 0 0 Z " fill="#293A35" transform="translate(207,137)"/>
<path d="M0 0 C0.33 0.66 0.66 1.32 1 2 C1.66 2.33 2.32 2.66 3 3 C2.34 3 1.68 3 1 3 C0.67 3.99 0.34 4.98 0 6 C0 5.34 0 4.68 0 4 C-1.98 4 -3.96 4 -6 4 C-4.03617993 2.49440461 -2.21736634 1.10868317 0 0 Z " fill="#A1B0A8" transform="translate(251,118)"/>
<path d="M0 0 C0.66 0.33 1.32 0.66 2 1 C1.67 1.66 1.34 2.32 1 3 C1.66 3 2.32 3 3 3 C3 3.66 3 4.32 3 5 C2.01 5.495 2.01 5.495 1 6 C0.34 6.99 -0.32 7.98 -1 9 C-1.625 6.1875 -1.625 6.1875 -2 3 C-1.34 2.01 -0.68 1.02 0 0 Z " fill="#384A45" transform="translate(275,96)"/>
<path d="M0 0 C-5.625 4 -5.625 4 -9 4 C-9 3.34 -9 2.68 -9 2 C-3.375 -1.125 -3.375 -1.125 0 0 Z " fill="#23342B" transform="translate(270,82)"/>
<path d="M0 0 C4.43090471 1.20842856 6.98112756 2.51668565 10 6 C6.33118845 5.29445932 3.29549466 3.72264494 0 2 C0 1.34 0 0.68 0 0 Z " fill="#C4D1CA" transform="translate(236,57)"/>
<path d="M0 0 C1.5 1.1875 1.5 1.1875 3 3 C3.1875 5.6875 3.1875 5.6875 3 8 C1.68 8 0.36 8 -1 8 C-0.67 5.36 -0.34 2.72 0 0 Z " fill="#92A098" transform="translate(65,335)"/>
<path d="M0 0 C0.66 0.33 1.32 0.66 2 1 C1.67 2.32 1.34 3.64 1 5 C0.34 5 -0.32 5 -1 5 C-1.66 6.32 -2.32 7.64 -3 9 C-3.33 8.34 -3.66 7.68 -4 7 C-3.22265625 5.2734375 -3.22265625 5.2734375 -2.0625 3.375 C-1.381875 2.26125 -0.70125 1.1475 0 0 Z " fill="#243630" transform="translate(299,302)"/>
<path d="M0 0 C2.475 0.99 2.475 0.99 5 2 C1.5647952 4.29013653 0.014669 4.17842973 -4 4 C-2.68 2.68 -1.36 1.36 0 0 Z " fill="#3E4E4B" transform="translate(130,267)"/>
<path d="M0 0 C0.99 0.33 1.98 0.66 3 1 C3 3 3 3 1.625 4.5625 C0 6 0 6 -2 7 C-2.66 6.34 -3.32 5.68 -4 5 C-3.34 4.67 -2.68 4.34 -2 4 C-0.86649466 1.98330173 -0.86649466 1.98330173 0 0 Z " fill="#3A4C47" transform="translate(108,256)"/>
<path d="M0 0 C2.97 0.495 2.97 0.495 6 1 C6 1.66 6 2.32 6 3 C5.0925 3.144375 4.185 3.28875 3.25 3.4375 C0.78523044 3.86409473 -1.58847107 4.35074221 -4 5 C-4 4.34 -4 3.68 -4 3 C-3.01 2.67 -2.02 2.34 -1 2 C-0.67 1.34 -0.34 0.68 0 0 Z " fill="#283931" transform="translate(168,159)"/>
<path d="M0 0 C0 3 0 3 -1.2421875 4.60546875 C-1.78101563 5.12753906 -2.31984375 5.64960937 -2.875 6.1875 C-3.40867187 6.71730469 -3.94234375 7.24710937 -4.4921875 7.79296875 C-6 9 -6 9 -8 9 C-6.90101298 5.70303895 -6.05402613 4.95329411 -3.4375 2.8125 C-2.79683594 2.28269531 -2.15617187 1.75289063 -1.49609375 1.20703125 C-0.75552734 0.60955078 -0.75552734 0.60955078 0 0 Z " fill="#2B3B37" transform="translate(300,82)"/>
<path d="M0 0 C0.66 0 1.32 0 2 0 C2 0.66 2 1.32 2 2 C2.99 2.33 3.98 2.66 5 3 C3.1875 4.5625 3.1875 4.5625 1 6 C0.01 5.67 -0.98 5.34 -2 5 C-1.34 4.01 -0.68 3.02 0 2 C0 1.34 0 0.68 0 0 Z " fill="#1D2C26" transform="translate(168,71)"/>
<path d="M0 0 C2.475 0.495 2.475 0.495 5 1 C5 1.66 5 2.32 5 3 C5.99 3.33 6.98 3.66 8 4 C5 5 5 5 2.3125 3.6875 C1.549375 3.130625 0.78625 2.57375 0 2 C0 1.34 0 0.68 0 0 Z " fill="#BFCEC8" transform="translate(122,388)"/>
<path d="M0 0 C-0.33 0.99 -0.66 1.98 -1 3 C-2.98 3 -4.96 3 -7 3 C-6.67 2.01 -6.34 1.02 -6 0 C-3.50907189 -1.24546405 -2.58919267 -0.7767578 0 0 Z " fill="#21312B" transform="translate(203,379)"/>
<path d="M0 0 C0.33 0.66 0.66 1.32 1 2 C2.32 2 3.64 2 5 2 C5 2.66 5 3.32 5 4 C4.01 4 3.02 4 2 4 C1.34 4.66 0.68 5.32 0 6 C-0.33 5.34 -0.66 4.68 -1 4 C-1.66 3.67 -2.32 3.34 -3 3 C-2.01 2.01 -1.02 1.02 0 0 Z " fill="#3A4A47" transform="translate(69,368)"/>
<path d="M0 0 C-6.75 4 -6.75 4 -9 4 C-8 1 -8 1 -5.625 -0.25 C-3 -1 -3 -1 0 0 Z " fill="#BECDC6" transform="translate(124,364)"/>
<path d="M0 0 C0.33 0.99 0.66 1.98 1 3 C-3.455 3.495 -3.455 3.495 -8 4 C-8 3.34 -8 2.68 -8 2 C-4.77208445 -0.1519437 -3.71599191 -0.20086443 0 0 Z " fill="#B2BFB7" transform="translate(143,353)"/>
<path d="M0 0 C-0.75 1.9375 -0.75 1.9375 -2 4 C-4.125 4.75 -4.125 4.75 -6 5 C-6 4.01 -6 3.02 -6 2 C-3 0 -3 0 0 0 Z " fill="#B1C1B9" transform="translate(252,347)"/>
<path d="M0 0 C1.32 1.65 2.64 3.3 4 5 C1 6 1 6 -1.1875 5.0625 C-1.785625 4.711875 -2.38375 4.36125 -3 4 C-2.01 2.68 -1.02 1.36 0 0 Z " fill="#3D4D49" transform="translate(145,343)"/>
<path d="M0 0 C0.66 1.32 1.32 2.64 2 4 C0.125 5.0625 0.125 5.0625 -2 6 C-2.66 5.67 -3.32 5.34 -4 5 C-3.67 4.01 -3.34 3.02 -3 2 C-2.01 2 -1.02 2 0 2 C0 1.34 0 0.68 0 0 Z " fill="#B4C1BA" transform="translate(278,326)"/>
<path d="M0 0 C0.99 0.33 1.98 0.66 3 1 C1.71034824 2.37562854 0.37310707 3.70766393 -1 5 C-1.66 5 -2.32 5 -3 5 C-2.625 3.0625 -2.625 3.0625 -2 1 C-1.34 0.67 -0.68 0.34 0 0 Z " fill="#B8C6BF" transform="translate(224,306)"/>
<path d="M0 0 C0.99 0 1.98 0 3 0 C2.67 1.32 2.34 2.64 2 4 C0.68 4 -0.64 4 -2 4 C-2.33 4.66 -2.66 5.32 -3 6 C-3.33 5.01 -3.66 4.02 -4 3 C-3.34 2.34 -2.68 1.68 -2 1 C-2 1.66 -2 2.32 -2 3 C-1.34 3 -0.68 3 0 3 C0 2.01 0 1.02 0 0 Z " fill="#A2AEA6" transform="translate(86,303)"/>
<path d="M0 0 C0.66 0 1.32 0 2 0 C1.67 2.31 1.34 4.62 1 7 C0.01 7.33 -0.98 7.66 -2 8 C-1.125 2.25 -1.125 2.25 0 0 Z " fill="#182A25" transform="translate(304,290)"/>
<path d="M0 0 C0 1.98 0 3.96 0 6 C-0.99 6.33 -1.98 6.66 -3 7 C-2.67 6.01 -2.34 5.02 -2 4 C-2.99 3.34 -3.98 2.68 -5 2 C-2 0 -2 0 0 0 Z " fill="#3A4A45" transform="translate(242,269)"/>
<path d="M0 0 C1.32 0 2.64 0 4 0 C4 1.32 4 2.64 4 4 C2.02 4 0.04 4 -2 4 C-1.34 2.68 -0.68 1.36 0 0 Z " fill="#283731" transform="translate(154,230)"/>
<path d="M0 0 C0.66 0 1.32 0 2 0 C1.35455571 3.48539917 -0.10134397 6.02819057 -2 9 C-3 6 -3 6 -1.5625 2.8125 C-1.046875 1.884375 -0.53125 0.95625 0 0 Z " fill="#192820" transform="translate(72,227)"/>
<path d="M0 0 C0.66 0.33 1.32 0.66 2 1 C0.12050295 4.57104439 -1.17053157 6.54744301 -5 8 C-4.34 6.35 -3.68 4.7 -3 3 C-2.34 3 -1.68 3 -1 3 C-0.67 2.01 -0.34 1.02 0 0 Z " fill="#A6B3AA" transform="translate(79,226)"/>
<path d="M0 0 C0 0.66 0 1.32 0 2 C-2.3125 3.6875 -2.3125 3.6875 -5 5 C-5.99 4.67 -6.98 4.34 -8 4 C-6 1 -6 1 -4 0.3125 C-2 0 -2 0 0 0 Z " fill="#25342F" transform="translate(125,187)"/>
<path d="M0 0 C-5.75 4 -5.75 4 -8 4 C-8 3.01 -8 2.02 -8 1 C-4.93251126 -0.86240388 -3.40254489 -1.2151946 0 0 Z " fill="#C4D2CC" transform="translate(157,174)"/>
<path d="M0 0 C-1 3 -1 3 -2 4 C-3.66617115 4.04063832 -5.33388095 4.042721 -7 4 C-7 3.34 -7 2.68 -7 2 C-4.35261084 0.5393715 -3.10551666 0 0 0 Z " fill="#293834" transform="translate(181,131)"/>
<path d="M0 0 C0 1.32 0 2.64 0 4 C-2.31 4.33 -4.62 4.66 -7 5 C-6 2 -6 2 -4.0625 0.8125 C-2 0 -2 0 0 0 Z " fill="#BAC7C2" transform="translate(184,69)"/>
<path d="M0 0 C0 0.66 0 1.32 0 2 C-2.8125 3.5625 -2.8125 3.5625 -6 5 C-6.99 4.67 -7.98 4.34 -9 4 C-2.25 0 -2.25 0 0 0 Z " fill="#1E2E27" transform="translate(224,45)"/>
<path d="M0 0 C2.31 0 4.62 0 7 0 C6.67 0.99 6.34 1.98 6 3 C4.35 3.33 2.7 3.66 1 4 C0.67 2.68 0.34 1.36 0 0 Z " fill="#B3C0B6" transform="translate(158,395)"/>
<path d="M0 0 C1.98 0 3.96 0 6 0 C6.33 1.32 6.66 2.64 7 4 C4.625 3.6875 4.625 3.6875 2 3 C1.34 2.01 0.68 1.02 0 0 Z " fill="#3C4B4A" transform="translate(121,392)"/>
<path d="M0 0 C-1 3 -1 3 -2.875 4.1875 C-5 5 -5 5 -8 5 C-8 4.34 -8 3.68 -8 3 C-6.68 3 -5.36 3 -4 3 C-4 2.34 -4 1.68 -4 1 C-2 0 -2 0 0 0 Z " fill="#B9C8C0" transform="translate(242,353)"/>
<path d="M0 0 C0.66 0 1.32 0 2 0 C1.42415568 2.38564077 0.77772405 4.66682784 0 7 C-0.66 7 -1.32 7 -2 7 C-1.125 1.125 -1.125 1.125 0 0 Z " fill="#BCCBC5" transform="translate(71,323)"/>
<path d="M0 0 C1.65 0.33 3.3 0.66 5 1 C4.01 2.485 4.01 2.485 3 4 C2.34 3.67 1.68 3.34 1 3 C1 3.99 1 4.98 1 6 C0.34 6 -0.32 6 -1 6 C-0.67 4.02 -0.34 2.04 0 0 Z " fill="#3A4B47" transform="translate(69,316)"/>
<path d="M0 0 C-3.06117568 2.62386487 -3.73173127 3 -8 3 C-8 2.34 -8 1.68 -8 1 C-4.93251126 -0.86240388 -3.40254489 -1.2151946 0 0 Z " fill="#1F2E29" transform="translate(194,298)"/>
<path d="M0 0 C0.33 0.66 0.66 1.32 1 2 C0.34 2 -0.32 2 -1 2 C-1.33 3.32 -1.66 4.64 -2 6 C-3.32 6.33 -4.64 6.66 -6 7 C-5.8125 5.1875 -5.8125 5.1875 -5 3 C-2.4375 1.25 -2.4375 1.25 0 0 Z " fill="#9BAAA3" transform="translate(113,281)"/>
<path d="M0 0 C0.66 0.99 1.32 1.98 2 3 C1.34 3 0.68 3 0 3 C-0.28875 3.639375 -0.5775 4.27875 -0.875 4.9375 C-2 7 -2 7 -4 8 C-2.25 2.25 -2.25 2.25 0 0 Z " fill="#23342F" transform="translate(298,220)"/>
<path d="M0 0 C0.33 1.32 0.66 2.64 1 4 C-2 5 -2 5 -4.1875 4.0625 C-4.785625 3.711875 -5.38375 3.36125 -6 3 C-5.34 3 -4.68 3 -4 3 C-3.67 2.34 -3.34 1.68 -3 1 C-2.01 0.67 -1.02 0.34 0 0 Z " fill="#3A4A45" transform="translate(252,200)"/>
<path d="M0 0 C1.98 0 3.96 0 6 0 C6 0.66 6 1.32 6 2 C4.1875 3.0625 4.1875 3.0625 2 4 C1.01 3.67 0.02 3.34 -1 3 C-0.67 2.01 -0.34 1.02 0 0 Z " fill="#A6B4AB" transform="translate(198,200)"/>
<path d="M0 0 C0.33 1.32 0.66 2.64 1 4 C-2.75 5.125 -2.75 5.125 -5 4 C-4.67 3.01 -4.34 2.02 -4 1 C-2 0 -2 0 0 0 Z " fill="#2D3C39" transform="translate(128,183)"/>
<path d="M0 0 C0 0.99 0 1.98 0 3 C-1.8125 4.75 -1.8125 4.75 -4 6 C-4.99 5.67 -5.98 5.34 -7 5 C-2.25 1.125 -2.25 1.125 0 0 Z " fill="#283731" transform="translate(104,172)"/>
<path d="M0 0 C0.33 0.66 0.66 1.32 1 2 C-0.65 2.66 -2.3 3.32 -4 4 C-4 4.99 -4 5.98 -4 7 C-4.66 7 -5.32 7 -6 7 C-5.8125 5.1875 -5.8125 5.1875 -5 3 C-2.4375 1.25 -2.4375 1.25 0 0 Z " fill="#273832" transform="translate(279,159)"/>
<path d="M0 0 C-0.33 0.66 -0.66 1.32 -1 2 C-3.3140622 2.73075648 -5.64828869 3.40138258 -8 4 C-7 1 -7 1 -5.125 -0.25 C-3 -1 -3 -1 0 0 Z " fill="#1B2A24" transform="translate(238,100)"/>
<path d="M0 0 C1.32 1.32 2.64 2.64 4 4 C3.01 4.66 2.02 5.32 1 6 C0.01 5.67 -0.98 5.34 -2 5 C-1.34 4.34 -0.68 3.68 0 3 C-0.66 2.67 -1.32 2.34 -2 2 C-1.34 1.34 -0.68 0.68 0 0 Z " fill="#B4C2BA" transform="translate(242,89)"/>
<path d="M0 0 C0.66 0.33 1.32 0.66 2 1 C1.67 2.65 1.34 4.3 1 6 C-2 5 -2 5 -4 2 C-2.125 0.9375 -2.125 0.9375 0 0 Z " fill="#A6B3AC" transform="translate(176,72)"/>
<path d="M0 0 C0.66 1.32 1.32 2.64 2 4 C-1.625 7 -1.625 7 -5 7 C-5 6.34 -5 5.68 -5 5 C-4.360625 4.731875 -3.72125 4.46375 -3.0625 4.1875 C-0.66868314 3.11332248 -0.66868314 3.11332248 0 0 Z " fill="#263633" transform="translate(182,64)"/>
</svg>
